<?xml version="1.0" encoding="utf-8"?>
<!-- Generator: Adobe Illustrator 25.3.1, SVG Export Plug-In . SVG Version: 6.00 Build 0)  -->
<svg version="1.1" id="Layer_1" xmlns="http://www.w3.org/2000/svg" xmlns:xlink="http://www.w3.org/1999/xlink" x="0px" y="0px"
	 viewBox="0 0 56 56" style="enable-background:new 0 0 56 56;" xml:space="preserve">
<style type="text/css">
	.st0{fill-rule:evenodd;clip-rule:evenodd;fill:#003C84;}
	.st1{fill-rule:evenodd;clip-rule:evenodd;fill:#FFFFFF;}
</style>
<g id="Design">
	<g id="Destination---Overview" transform="translate(-1165.000000, -8295.000000)">
		<g id="Cards" transform="translate(0.000000, 8128.000000)">
			<g id="Group-2" transform="translate(1050.000000, 167.000000)">
				<g id="Group-9" transform="translate(115.000000, 0.000000)">
					<path id="Fill-1" class="st0" d="M56,28c0,15.5-12.5,28-28,28S0,43.5,0,28S12.5,0,28,0S56,12.5,56,28"/>
					<path id="Fill-3" class="st1" d="M23.6,27c-0.1,0.1-0.2,0.2-0.4,0.2c0,0-0.1,0-0.1,0c-0.2,0-0.3-0.2-0.3-0.4l-0.1-0.3
						c-0.3-1.4-0.4-3-0.4-4.7c0-2.8,0.8-5.7,2.2-5.7c0.4,0,0.7,0.2,1.1,0.6c0.7,0.7,1.3,2.3,1.1,4.2l0,0.3c-0.2,1.6-1.2,3.6-2.8,5.6
						L23.6,27z M33.5,30.9l0.8,2.1c0.1,0.2,0.2,0.4,0.3,0.7c0.6,1,1.3,1.5,2.2,1.5c1.5,0,3-0.7,4.4-2.1c0.2-0.2,0.4-0.6,0.4-0.9
						c0-0.3-0.1-0.7-0.4-0.9c-0.5-0.5-1.4-0.5-1.8,0l-0.3,0.3c-0.5,0.5-1.1,0.8-1.6,1l-0.2,0.1c-0.2,0.1-0.5,0-0.5-0.3l-0.3-0.7
						l-0.7-2.1c-0.1-0.2-0.2-0.5-0.3-0.7c-0.6-1-1.3-1.5-2.2-1.5c-0.8,0-1.5,0.4-2.2,1.3l-0.5,0.7l-1,1.5c-0.9,1.3-1.6,1.8-2.5,1.8
						l-0.2,0c-1-0.1-1.9-0.7-2.6-1.8l-0.1-0.2c-0.1-0.2-0.1-0.4,0.1-0.6l0.2-0.2c2.8-2.9,4.7-6.3,4.9-8.9c0.2-2.3-0.5-4.7-1.8-6.1
						c-0.8-0.9-1.9-1.4-3-1.4c-2.9,0-4.8,3.2-4.8,8.3l0,0.5c0,2.7,0.4,5,1,7l0.1,0.2c0.1,0.2,0,0.4-0.2,0.5L20.4,30
						c-1.7,1.3-3.4,2.2-5,2.7c-0.3,0.1-0.6,0.3-0.8,0.6c-0.2,0.3-0.2,0.6-0.1,1s0.3,0.6,0.6,0.8c0.3,0.2,0.6,0.2,1,0.1l0.4-0.1
						c1.6-0.5,3.3-1.4,4.9-2.6l0.1-0.1c0.1-0.1,0.2-0.1,0.4-0.1c0.1,0,0.2,0.1,0.3,0.2l0.2,0.2c1.2,1.7,2.8,2.5,4.8,2.5
						c1.9,0,3.3-0.9,4.8-3.2l0.8-1.2c0.1-0.1,0.3-0.2,0.4-0.2C33.3,30.7,33.5,30.8,33.5,30.9L33.5,30.9z"/>
					<path id="Fill-5" class="st1" d="M33.2,22.2c-0.7,0-1.3,0.6-1.3,1.3c0,0.7,0.6,1.3,1.3,1.3s1.3-0.6,1.3-1.3
						C34.5,22.7,34,22.2,33.2,22.2"/>
					<path id="Fill-7" class="st1" d="M40.8,40.9H15.2c-0.4,0-0.7-0.3-0.7-0.7c0-0.4,0.3-0.7,0.7-0.7h25.7c0.4,0,0.7,0.3,0.7,0.7
						C41.5,40.6,41.2,40.9,40.8,40.9"/>
				</g>
			</g>
		</g>
	</g>
</g>
</svg>
