<?xml version="1.0" encoding="utf-8"?>
<!-- Generator: Adobe Illustrator 23.0.1, SVG Export Plug-In . SVG Version: 6.00 Build 0)  -->
<svg version="1.1" id="レイヤー_1" xmlns="http://www.w3.org/2000/svg" xmlns:xlink="http://www.w3.org/1999/xlink" x="0px"
	 y="0px" viewBox="0 0 640 640" style="enable-background:new 0 0 640 640;" xml:space="preserve">
<path d="M180.41,267.01c-0.72,22.65,10.6,32.68,10.88,39.05c-0.27,2.63-1.8,4.97-4.1,6.27l-12.8,8.96
	c-1.66,1.16-3.61,1.83-5.63,1.92c-0.43-0.02-8.19,1.83-20.48-25.61c-15.2,18.97-38.31,29.84-62.61,29.45
	c-16.28,0.89-60.4-9.24-58.13-56.21c-1.59-38.28,34.06-62.06,70.93-60.05c7.1,0.02,21.6,0.37,46.99,6.27v-15.62
	c2.69-26.46-14.7-46.99-44.81-43.91c-2.4,0.01-19.4-0.5-45.84,10.11c-7.36,3.38-8.3,2.82-10.75,2.82c-7.41,0-4.36-21.48-2.94-24.2
	c5.21-6.4,35.86-18.35,65.94-18.18c20.11-1.78,40.12,4.43,55.69,17.28c12.79,14.31,19.18,33.23,17.67,52.36L180.41,267.01
	L180.41,267.01z M93.99,299.4c32.43-0.47,46.16-19.97,49.29-30.47c2.46-10.05,2.05-16.41,2.05-27.4
	c-9.67-2.32-23.59-4.85-39.56-4.87c-15.15-1.14-42.82,5.63-41.74,32.26C62.79,285.71,75.15,300.32,93.99,299.4z M264.91,322.45
	c-7.86,0.72-11.52-4.86-12.68-10.37l-49.8-164.65c-0.97-2.78-1.61-5.65-1.92-8.58c-0.38-2.52,1.35-4.87,3.86-5.25
	c0.24-0.04-2.13,0,22.25,0c8.78-0.88,11.64,6.03,12.55,10.37l35.72,140.83l33.16-140.83c0.53-3.22,2.94-11.07,12.8-10.24h17.16
	c2.17-0.18,11.11-0.5,12.68,10.37l33.42,142.63l36.87-142.63c0.48-2.18,2.72-11.37,12.68-10.37h19.72c0.85-0.13,6.15-0.81,5.25,8.58
	c-0.43,1.85,3.41-10.66-52.75,169.9c-1.15,5.51-4.82,11.09-12.68,10.37h-18.69c-10.94,1.15-12.51-9.66-12.68-10.75L328.67,174.7
	l-32.78,136.99c-0.16,1.09-1.73,11.9-12.68,10.75L264.91,322.45L264.91,322.45z M538.39,328.08c-5.88,0.01-33.92-0.3-57.36-12.29
	c-4.78-2.02-7.86-6.72-7.81-11.91v-10.75c0-8.45,6.2-6.9,8.83-5.89c10.04,4.06,16.48,7.14,28.81,9.6
	c36.65,7.53,52.77-2.3,56.72-4.48c13.15-7.81,14.19-25.68,5.25-34.95c-10.48-8.79-15.48-9.12-53.13-21
	c-4.64-1.29-43.7-13.61-43.79-52.36c-0.61-28.24,25.05-56.18,69.52-55.95c12.67-0.01,46.43,4.13,55.57,15.62
	c1.35,2.09,2.02,4.55,1.92,7.04v10.11c0,4.44-1.62,6.66-4.87,6.66c-7.71-0.86-21.39-11.17-49.16-10.75
	c-6.89-0.36-39.89,0.91-38.41,24.97c-0.43,18.96,26.61,26.07,29.7,26.89c36.46,10.97,48.65,12.79,63.12,29.58
	c17.14,22.25,7.9,48.3,4.35,55.44C588.57,331.15,539.23,328.1,538.39,328.08L538.39,328.08z M578.59,432.94
	c-70.03,51.72-171.69,79.25-258.49,79.25C202.98,512.96,89.81,469.9,2.83,391.46c-6.53-5.89-0.77-13.96,7.17-9.47
	c96.48,55.19,205.73,84.19,316.88,84.12c83.01-0.45,165.11-17.28,241.59-49.55C580.25,411.56,590.24,424.36,578.59,432.94
	L578.59,432.94z M607.78,399.65c-8.96-11.52-59.28-5.38-81.81-2.69c-6.79,0.77-7.94-5.12-1.79-9.47
	c40.07-28.17,105.88-20.1,113.44-10.63c7.55,9.47-2.05,75.41-39.56,106.91c-5.76,4.87-11.27,2.3-8.71-4.1
	C597.79,458.42,616.74,411.18,607.78,399.65z"/>
</svg>
