<?xml version="1.0" encoding="UTF-8" standalone="no" ?>
<!DOCTYPE svg PUBLIC "-//W3C//DTD SVG 1.1//EN" "http://www.w3.org/Graphics/SVG/1.1/DTD/svg11.dtd">
<svg xmlns="http://www.w3.org/2000/svg" xmlns:xlink="http://www.w3.org/1999/xlink" version="1.1" width="640" height="640" viewBox="0 0 640 640" xml:space="preserve">
<desc>Created with Fabric.js 5.3.0</desc>
<defs>
</defs>
<g transform="matrix(4.4129736353 0 0 4.4129736646 323 320)" id="xo4pthULYIUaZHiaLpvD8"  >
<path style="stroke: none; stroke-width: 1; stroke-dasharray: none; stroke-linecap: butt; stroke-dashoffset: 0; stroke-linejoin: miter; stroke-miterlimit: 4; fill: rgb(0,120,215); fill-rule: nonzero; opacity: 1;"  transform=" translate(-67.9813714729, -40.25)" d="M 90.20116 77.5 L 90.20116 56.3 L 105.40116 56.3 C 108.40116 56 110.80116000000001 53.599999999999994 110.80116000000001 50.599999999999994 L 110.80116000000001 48.99999999999999 C 114.50116000000001 48.099999999999994 117.30116000000001 44.79999999999999 117.30116000000001 40.8 C 117.30116000000001 36.199999999999996 113.50116000000001 32.4 108.90116 32.4 C 104.30116000000001 32.4 100.50116 36.199999999999996 100.50116 40.8 C 100.50116 44.8 103.30116 48.099999999999994 107.00116 49 L 107.00116 50.6 C 107.00116 51.4 106.20116 52.2 105.40116 52.2 L 90.20116 52.2 L 90.20116 25.000000000000004 C 90.20116 22.000000000000004 87.80116 19.6 84.80116 19.6 L 76.40115999999999 19.6 C 75.50115999999998 15.900000000000002 72.20115999999999 13.100000000000001 68.20115999999999 13.100000000000001 C 63.601159999999986 13.100000000000001 59.80115999999999 16.900000000000002 59.80115999999999 21.5 C 59.80115999999999 26.1 63.601159999999986 29.9 68.20115999999999 29.9 C 72.40115999999999 29.9 75.80115999999998 27.099999999999998 76.50115999999998 23.4 L 84.80115999999998 23.4 C 85.60115999999998 23.4 86.40115999999998 24.2 86.40115999999998 25 L 86.40115999999998 77.1 C 85.10115999999998 76.8 83.80115999999998 76.39999999999999 82.60115999999998 75.89999999999999 C 79.10115999999998 78.89999999999999 73.40115999999998 80.49999999999999 66.90115999999998 80.49999999999999 C 61.50115999999998 80.49999999999999 54.70115999999997 79.09999999999998 50.401159999999976 75.59999999999998 C 48.801159999999975 76.09999999999998 46.901159999999976 76.39999999999998 45.00115999999998 76.39999999999998 C 44.60115999999998 76.39999999999998 44.301159999999975 76.39999999999998 43.901159999999976 76.39999999999998 L 43.901159999999976 52.49999999999998 C 43.901159999999976 49.49999999999998 41.50115999999998 47.09999999999998 38.50115999999998 47.09999999999998 L 31.501159999999977 47.09999999999998 C 30.60115999999998 43.39999999999998 27.301159999999978 40.59999999999998 23.301159999999978 40.59999999999998 C 18.70115999999998 40.59999999999998 14.901159999999978 44.39999999999998 14.901159999999978 48.99999999999998 C 14.901159999999978 53.59999999999998 18.701159999999977 57.39999999999998 23.301159999999978 57.39999999999998 C 27.301159999999978 57.39999999999998 30.60115999999998 54.59999999999998 31.501159999999977 50.89999999999998 L 38.50115999999998 50.89999999999998 C 39.301159999999975 50.89999999999998 40.10115999999998 51.699999999999974 40.10115999999998 52.49999999999998 L 40.10115999999998 75.79999999999998 C 36.20115999999998 74.79999999999998 32.401159999999976 72.79999999999998 29.301159999999978 69.89999999999998 C 26.60115999999998 70.99999999999997 23.901159999999976 71.49999999999997 21.20115999999998 71.49999999999997 C 13.90115999999998 71.49999999999997 7.101159999999981 67.39999999999998 3.3011599999999817 60.89999999999997 C -0.49884000000001816 54.39999999999997 -0.9988400000000182 46.79999999999997 1.7011599999999816 39.699999999999974 C 4.701159999999982 32.299999999999976 10.701159999999982 26.899999999999974 19.10115999999998 23.899999999999974 C 21.801159999999978 14.099999999999973 31.301159999999978 6.199999999999974 41.10115999999998 6.199999999999974 C 41.70115999999998 6.199999999999974 42.401159999999976 6.299999999999974 43.00115999999998 6.399999999999975 L 43.00115999999998 34.09999999999997 C 43.00115999999998 37.09999999999997 45.401159999999976 39.49999999999997 48.401159999999976 39.49999999999997 L 60.301159999999975 39.49999999999997 C 61.10115999999997 39.49999999999997 61.901159999999976 40.29999999999997 61.901159999999976 41.09999999999997 L 61.901159999999976 48.699999999999974 C 58.00115999999998 49.49999999999997 55.10115999999998 52.89999999999998 55.10115999999998 56.99999999999997 C 55.10115999999998 61.59999999999997 58.901159999999976 65.39999999999998 63.50115999999998 65.39999999999998 C 68.40115999999998 65.39999999999998 72.20115999999997 61.59999999999998 71.90115999999998 56.99999999999998 C 71.90115999999998 53.19999999999998 69.30115999999998 49.89999999999998 65.70115999999997 48.89999999999998 L 65.70115999999997 40.99999999999998 C 65.50115999999997 37.69999999999998 63.00115999999997 35.299999999999976 60.301159999999975 35.299999999999976 L 48.401159999999976 35.299999999999976 C 47.60115999999998 35.299999999999976 46.801159999999975 34.49999999999998 46.801159999999975 33.699999999999974 L 46.901159999999976 5.199999999999974 C 50.70115999999997 2.3999999999999746 56.00115999999998 0.29999999999997407 61.50115999999998 0.29999999999997407 C 64.40115999999998 0.29999999999997407 67.20115999999997 0.7999999999999741 69.60115999999998 2.199999999999974 C 72.60115999999998 0.7999999999999741 75.80115999999998 -2.6201263381153694e-14 79.10115999999998 -2.6201263381153694e-14 C 84.50115999999998 -2.6201263381153694e-14 89.60115999999998 1.8999999999999737 94.80115999999998 5.699999999999974 L 96.20115999999999 5.699999999999974 C 108.60116 5.699999999999974 117.30115999999998 15.799999999999974 120.30115999999998 26.099999999999973 C 126.80115999999998 29.099999999999973 132.00115999999997 34.29999999999997 134.40115999999998 39.99999999999997 C 136.60115999999996 45.39999999999997 136.60115999999996 51.39999999999997 133.60115999999996 57.09999999999997 C 130.30115999999995 64.99999999999997 123.30115999999997 69.89999999999998 115.70115999999996 69.89999999999998 C 113.50115999999996 69.89999999999998 111.10115999999996 69.29999999999998 108.90115999999996 68.49999999999997 C 104.80115999999997 73.69999999999997 97.80115999999997 77.49999999999997 90.70115999999996 77.49999999999997 C 90.60115999999996 77.49999999999997 90.30115999999995 77.49999999999997 90.20115999999996 77.49999999999997 z M 23.50116 43.8 C 26.201159999999998 43.8 28.701159999999998 46.3 28.401159999999997 48.699999999999996 C 28.401159999999997 51.4 26.201159999999998 53.599999999999994 23.50116 53.599999999999994 C 20.80116 53.599999999999994 18.60116 51.39999999999999 18.60116 48.699999999999996 C 18.60116 45.99999999999999 20.70116 43.8 23.50116 43.8 z M 63.60116 51.9 C 66.30116 51.9 68.80116 54.1 68.50116 56.8 C 68.50116 59.5 66.30116 61.699999999999996 63.60116 61.699999999999996 C 60.90116 61.699999999999996 58.70116 59.49999999999999 58.70116 56.8 C 58.70116 54.099999999999994 60.901160000000004 51.9 63.60116 51.9 z M 104.20116 40.8 C 104.20116 38.093799999999995 106.39496 35.9 109.10116000000001 35.9 C 111.80736 35.9 114.00116000000001 38.0938 114.00116000000001 40.8 C 114.00116000000001 43.5062 111.80736000000002 45.699999999999996 109.10116000000001 45.699999999999996 C 106.39496000000001 45.699999999999996 104.20116 43.50619999999999 104.20116 40.8 z M 68.50116 16.3 C 71.50116 16.3 73.70116 18.5 73.40116 21.200000000000003 C 73.40116 23.900000000000002 71.20116 26.1 68.50116 26.1 C 65.80116 26.1 63.60116 23.900000000000002 63.60116 21.200000000000003 C 63.60116 18.500000000000004 65.80116 16.300000000000004 68.50116 16.300000000000004 z" stroke-linecap="round" />
</g>
</svg>