<?xml version="1.0" encoding="UTF-8" standalone="no"?>
<!DOCTYPE svg PUBLIC "-//W3C//DTD SVG 1.1//EN" "http://www.w3.org/Graphics/SVG/1.1/DTD/svg11.dtd">
<svg version="1.1" xmlns="http://www.w3.org/2000/svg" xmlns:xlink="http://www.w3.org/1999/xlink" preserveAspectRatio="xMidYMid meet" viewBox="0 0 640 640" width="640" height="640"><defs><path d="M313.02 54.13L322.7 55.11L332.26 56.47L341.7 58.21L351.01 60.31L360.17 62.76L369.19 65.57L378.05 68.71L386.75 72.19L395.28 76L403.63 80.12L411.79 84.55L419.76 89.29L427.52 94.32L435.07 99.64L442.41 105.24L449.52 111.11L456.4 117.24L463.04 123.63L469.43 130.27L475.56 137.14L481.43 144.26L487.03 151.59L492.35 159.15L497.38 166.91L502.11 174.88L506.54 183.04L510.67 191.39L514.47 199.91L517.95 208.61L521.1 217.47L523.9 226.49L526.36 235.66L528.46 244.96L530.19 254.4L531.55 263.97L532.54 273.65L533.13 283.44L533.33 293.33L533.13 303.23L532.54 313.02L531.55 322.7L530.19 332.26L528.46 341.7L526.36 351.01L523.9 360.17L521.1 369.19L517.95 378.05L514.47 386.75L510.67 395.28L506.54 403.63L502.11 411.79L497.38 419.76L492.35 427.52L487.75 434.05L488.05 434.28L488.4 434.57L488.74 434.88L489.07 435.2L536.27 482.4L583.47 529.6L583.78 529.93L584.08 530.27L584.36 530.62L584.63 530.98L584.88 531.35L585.11 531.72L585.33 532.1L585.53 532.49L585.72 532.89L585.89 533.29L586.04 533.69L586.18 534.1L586.3 534.51L586.4 534.93L586.49 535.34L586.57 535.77L586.62 536.19L586.66 536.61L586.69 537.04L586.69 537.47L586.69 537.89L586.66 538.32L586.62 538.74L586.57 539.17L586.49 539.59L586.4 540.01L586.3 540.42L586.18 540.84L586.04 541.24L585.89 541.65L585.72 542.05L585.53 542.44L585.33 542.83L585.11 543.21L584.88 543.58L584.63 543.95L584.36 544.31L584.08 544.66L583.78 545L583.47 545.33L545.33 583.47L545 583.78L544.66 584.08L544.31 584.36L543.95 584.63L543.58 584.88L543.21 585.11L542.83 585.33L542.44 585.53L542.05 585.72L541.65 585.89L541.24 586.04L540.84 586.18L540.42 586.3L540.01 586.4L539.59 586.49L539.17 586.57L538.74 586.62L538.32 586.66L537.89 586.69L537.47 586.69L537.04 586.69L536.61 586.66L536.19 586.62L535.77 586.57L535.34 586.49L534.93 586.4L534.51 586.3L534.1 586.18L533.69 586.04L533.29 585.89L532.89 585.72L532.49 585.53L532.1 585.33L531.72 585.11L531.35 584.88L530.98 584.63L530.62 584.36L530.27 584.08L529.93 583.78L529.6 583.47L435.2 489.07L435.2 489.06L435.18 489.05L435.17 489.04L435.16 489.03L435.15 489.01L435.13 489L435.12 488.99L435.11 488.98L435.1 488.97L435.09 488.95L435.07 488.94L435.06 488.93L435.05 488.92L435.04 488.91L434.72 488.57L434.42 488.22L434.14 487.87L434.05 487.75L427.52 492.35L419.76 497.38L411.79 502.11L403.63 506.54L395.28 510.67L386.75 514.47L378.05 517.95L369.19 521.1L360.17 523.9L351.01 526.36L341.7 528.46L332.26 530.19L322.7 531.55L313.02 532.54L303.23 533.13L293.33 533.33L283.44 533.13L273.65 532.54L263.97 531.55L254.4 530.19L244.96 528.46L235.66 526.36L226.49 523.9L217.47 521.1L208.61 517.95L199.91 514.47L191.39 510.67L183.04 506.54L174.88 502.11L166.91 497.38L159.15 492.35L151.59 487.03L144.26 481.43L137.14 475.56L130.27 469.43L123.63 463.04L117.24 456.4L111.11 449.52L105.24 442.41L99.64 435.07L94.32 427.52L89.29 419.76L84.55 411.79L80.12 403.63L76 395.28L72.19 386.75L68.71 378.05L65.57 369.19L62.76 360.17L60.31 351.01L58.21 341.7L56.47 332.26L55.11 322.7L54.13 313.02L53.53 303.23L53.33 293.33L53.53 283.44L54.13 273.65L55.11 263.97L56.47 254.4L58.21 244.96L60.31 235.66L62.76 226.49L65.57 217.47L68.71 208.61L72.19 199.91L76 191.39L80.12 183.04L84.55 174.88L89.29 166.91L94.32 159.15L99.64 151.59L105.24 144.26L111.11 137.14L117.24 130.27L123.63 123.63L130.27 117.24L137.14 111.11L144.26 105.24L151.59 99.64L159.15 94.32L166.91 89.29L174.88 84.55L183.04 80.12L191.39 76L199.91 72.19L208.61 68.71L217.47 65.57L226.49 62.76L235.66 60.31L244.96 58.21L254.4 56.47L263.97 55.11L273.65 54.13L283.44 53.53L293.33 53.33L303.23 53.53L313.02 54.13ZM279.26 116.04L272.07 116.75L264.97 117.76L257.96 119.03L251.05 120.58L244.25 122.39L237.55 124.46L230.97 126.79L224.51 129.36L218.18 132.18L211.97 135.23L205.91 138.51L199.99 142.01L194.23 145.74L188.61 149.68L183.16 153.83L177.88 158.17L172.76 162.72L167.83 167.45L163.08 172.37L158.52 177.47L154.16 182.74L149.99 188.18L146.04 193.78L142.3 199.54L138.77 205.45L135.47 211.5L132.4 217.69L129.57 224.02L126.98 230.47L124.63 237.04L122.54 243.73L120.71 250.53L119.14 257.44L117.84 264.44L116.82 271.54L116.08 278.72L115.63 285.99L115.47 293.33L115.6 300.68L116.04 307.94L116.75 315.13L117.76 322.23L119.03 329.24L120.58 336.15L122.39 342.95L124.46 349.65L126.79 356.23L129.36 362.69L132.18 369.02L135.23 375.23L138.51 381.29L142.01 387.21L145.74 392.97L149.68 398.59L153.83 404.04L158.17 409.32L162.72 414.44L167.45 419.37L172.37 424.12L177.47 428.68L182.74 433.04L188.18 437.21L193.78 441.16L199.54 444.9L205.45 448.43L211.5 451.73L217.69 454.8L224.02 457.63L230.47 460.22L237.04 462.57L243.73 464.66L250.53 466.49L257.44 468.06L264.44 469.36L271.54 470.38L278.72 471.12L285.99 471.57L293.33 471.73L293.37 471.73L293.44 471.73L293.52 471.73L293.71 471.73L293.8 471.73L293.87 471.73L301.21 471.57L308.48 471.12L315.66 470.38L322.76 469.36L329.76 468.06L336.67 466.49L343.47 464.66L350.16 462.57L356.73 460.22L363.18 457.63L369.51 454.8L375.7 451.73L381.75 448.43L387.66 444.9L393.42 441.16L399.02 437.21L404.46 433.04L409.73 428.68L414.83 424.12L419.75 419.37L424.48 414.44L429.03 409.32L433.38 404.04L437.52 398.59L441.46 392.97L445.19 387.21L448.69 381.29L451.97 375.23L455.02 369.02L457.84 362.69L460.41 356.23L462.74 349.65L464.81 342.95L466.62 336.15L468.17 329.24L469.45 322.23L470.45 315.13L471.16 307.94L471.6 300.68L471.73 293.33L471.57 286.01L471.12 278.75L470.39 271.58L469.37 264.5L468.07 257.51L466.51 250.62L464.69 243.83L462.6 237.15L460.27 230.59L457.69 224.15L454.86 217.83L451.8 211.65L448.52 205.6L445.01 199.7L441.28 193.95L437.33 188.36L433.19 182.92L428.84 177.65L424.29 172.56L419.56 167.64L414.64 162.91L409.55 158.36L404.28 154.01L398.84 149.87L393.25 145.92L387.5 142.2L381.6 138.68L375.55 135.4L369.37 132.34L363.05 129.52L356.61 126.93L350.05 124.6L343.37 122.51L336.58 120.69L329.69 119.13L322.7 117.83L315.62 116.81L308.45 116.08L301.19 115.63L293.87 115.47L286.52 115.6L279.26 116.04ZM319.33 426.71L318.67 426.75L318 426.78L317.34 426.82L316.67 426.85L316 426.88L315.34 426.91L314.67 426.93L314 426.96L313.34 426.98L312.67 427L312 427.02L311.34 427.03L310.67 427.05L310 427.06L309.33 427.07L308.67 427.07L308 427.08L307.33 427.08L306.67 427.08L306 427.08L305.33 427.08L304.67 427.07L304 427.07L303.33 427.06L302.66 427.05L302 427.03L301.33 427.02L300.66 427L300 426.98L299.33 426.96L298.66 426.93L298 426.91L297.33 426.88L296.66 426.85L296 426.82L295.33 426.78L294.67 426.75L294 426.71L293.33 426.67L292.59 426.68L291.85 426.69L291.11 426.7L290.37 426.7L289.62 426.7L288.88 426.7L288.14 426.7L287.4 426.69L286.66 426.68L285.92 426.67L285.17 426.66L284.43 426.64L283.69 426.62L282.95 426.6L282.21 426.57L281.47 426.55L280.73 426.52L279.99 426.48L279.24 426.45L278.5 426.41L277.76 426.37L277.02 426.32L276.28 426.27L275.54 426.23L274.8 426.17L274.06 426.12L273.32 426.06L272.59 426L271.85 425.94L271.11 425.87L270.37 425.8L269.63 425.73L268.89 425.66L268.15 425.58L267.42 425.5L266.68 425.42L265.94 425.34L265.21 425.25L264.47 425.16L263.73 425.07L263.73 224.27L320 224.27L320 426.67L319.33 426.71ZM223.66 404.47L222.26 403.59L220.88 402.7L219.5 401.78L218.15 400.85L216.8 399.91L215.46 398.94L214.14 397.97L212.83 396.97L211.54 395.96L210.26 394.93L208.99 393.89L207.73 392.83L206.49 391.76L205.26 390.67L204.05 389.57L202.85 388.45L201.67 387.32L200.5 386.17L199.34 385.01L198.2 383.83L197.07 382.64L195.96 381.44L194.86 380.22L193.78 378.99L192.71 377.74L191.66 376.48L190.63 375.21L189.61 373.92L188.6 372.62L187.61 371.31L186.64 369.98L185.69 368.65L184.75 367.29L183.83 365.93L182.92 364.56L182.03 363.17L181.16 361.77L180.3 360.36L179.47 358.93L179.47 288.8L225.07 288.8L225.07 405.33L223.66 404.47ZM408.25 356.94L407.41 358.4L406.56 359.86L405.69 361.3L404.8 362.72L403.9 364.14L402.97 365.54L402.03 366.93L401.08 368.31L400.1 369.68L399.11 371.03L398.11 372.37L397.08 373.7L396.04 375.01L394.99 376.31L393.92 377.6L392.83 378.87L391.72 380.13L390.6 381.37L389.47 382.6L388.32 383.82L387.15 385.02L385.97 386.2L384.78 387.38L383.57 388.53L382.34 389.68L381.1 390.8L379.85 391.91L378.58 393.01L377.3 394.09L376.01 395.15L374.7 396.2L373.37 397.24L372.03 398.25L370.68 399.25L369.32 400.23L367.94 401.2L366.55 402.15L365.15 403.08L363.73 404L363.73 316.27L409.07 316.27L409.07 355.47L408.25 356.94Z" id="bP8oo5lJT"></path></defs><g><g><g><use xlink:href="#bP8oo5lJT" opacity="1" fill="#aecbfa" fill-opacity="1"></use><g><use xlink:href="#bP8oo5lJT" opacity="1" fill-opacity="0" stroke="#000000" stroke-width="1" stroke-opacity="0"></use></g></g></g></g></svg>