<?xml version="1.0" encoding="UTF-8" standalone="no" ?>
<!DOCTYPE svg PUBLIC "-//W3C//DTD SVG 1.1//EN" "http://www.w3.org/Graphics/SVG/1.1/DTD/svg11.dtd">
<svg xmlns="http://www.w3.org/2000/svg" xmlns:xlink="http://www.w3.org/1999/xlink" version="1.1" width="320" height="320" viewBox="0 0 320 320" xml:space="preserve">
<desc>Created with Fabric.js 4.6.0</desc>
<defs>
</defs>
<g transform="matrix(1.92 0 0 1.92 160.11 155.42)" id="ovLwIF2D7XkAVn9D1oaJy"  >
<g style="" vector-effect="non-scaling-stroke"   >
		<g transform="matrix(5.71 0 0 5.71 0 -16.09)" id="dkmg4qdRlgWPt8c_RNd52"  >
<path style="stroke: none; stroke-width: 1; stroke-dasharray: none; stroke-linecap: butt; stroke-dashoffset: 0; stroke-linejoin: miter; stroke-miterlimit: 4; fill: rgb(0,60,132); fill-rule: evenodd; opacity: 1;" vector-effect="non-scaling-stroke"  transform=" translate(-28.02, -24.38)" d="M 23.6 27 C 23.5 27.1 23.400000000000002 27.2 23.200000000000003 27.2 C 23.200000000000003 27.2 23.1 27.2 23.1 27.2 C 22.900000000000002 27.2 22.8 27 22.8 26.8 L 22.7 26.5 C 22.4 25.1 22.3 23.5 22.3 21.8 C 22.3 19 23.1 16.1 24.5 16.1 C 24.9 16.1 25.2 16.3 25.6 16.700000000000003 C 26.3 17.400000000000002 26.900000000000002 19.000000000000004 26.700000000000003 20.900000000000002 L 26.700000000000003 21.200000000000003 C 26.500000000000004 22.800000000000004 25.500000000000004 24.800000000000004 23.900000000000002 26.800000000000004 L 23.6 27 z M 33.5 30.9 L 34.3 33 C 34.4 33.2 34.5 33.4 34.599999999999994 33.7 C 35.199999999999996 34.7 35.89999999999999 35.2 36.8 35.2 C 38.3 35.2 39.8 34.5 41.199999999999996 33.1 C 41.4 32.9 41.599999999999994 32.5 41.599999999999994 32.2 C 41.599999999999994 31.900000000000002 41.49999999999999 31.500000000000004 41.199999999999996 31.300000000000004 C 40.699999999999996 30.800000000000004 39.8 30.800000000000004 39.4 31.300000000000004 L 39.1 31.600000000000005 C 38.6 32.10000000000001 38 32.400000000000006 37.5 32.60000000000001 L 37.3 32.70000000000001 C 37.099999999999994 32.80000000000001 36.8 32.70000000000001 36.8 32.40000000000001 L 36.5 31.700000000000014 L 35.8 29.600000000000012 C 35.699999999999996 29.400000000000013 35.599999999999994 29.100000000000012 35.5 28.900000000000013 C 34.9 27.900000000000013 34.2 27.400000000000013 33.3 27.400000000000013 C 32.5 27.400000000000013 31.799999999999997 27.80000000000001 31.099999999999998 28.700000000000014 L 30.599999999999998 29.400000000000013 L 29.599999999999998 30.900000000000013 C 28.7 32.20000000000001 27.999999999999996 32.70000000000001 27.099999999999998 32.70000000000001 L 26.9 32.70000000000001 C 25.9 32.60000000000001 25 32.00000000000001 24.299999999999997 30.90000000000001 L 24.199999999999996 30.70000000000001 C 24.099999999999994 30.50000000000001 24.099999999999994 30.30000000000001 24.299999999999997 30.10000000000001 L 24.499999999999996 29.90000000000001 C 27.299999999999997 27.00000000000001 29.199999999999996 23.60000000000001 29.4 21.000000000000007 C 29.599999999999998 18.700000000000006 28.9 16.300000000000008 27.599999999999998 14.900000000000007 C 26.799999999999997 14.000000000000007 25.7 13.500000000000007 24.599999999999998 13.500000000000007 C 21.7 13.500000000000007 19.799999999999997 16.700000000000006 19.799999999999997 21.800000000000008 L 19.799999999999997 22.300000000000008 C 19.799999999999997 25.000000000000007 20.199999999999996 27.300000000000008 20.799999999999997 29.300000000000008 L 20.9 29.500000000000007 C 21 29.700000000000006 20.9 29.900000000000006 20.7 30.000000000000007 L 20.4 30 C 18.7 31.3 17 32.2 15.399999999999999 32.7 C 15.099999999999998 32.800000000000004 14.799999999999999 33 14.599999999999998 33.300000000000004 C 14.399999999999999 33.6 14.399999999999999 33.900000000000006 14.499999999999998 34.300000000000004 C 14.599999999999998 34.7 14.799999999999999 34.900000000000006 15.099999999999998 35.1 C 15.399999999999999 35.300000000000004 15.699999999999998 35.300000000000004 16.099999999999998 35.2 L 16.499999999999996 35.1 C 18.099999999999998 34.6 19.799999999999997 33.7 21.4 32.5 L 21.5 32.4 C 21.6 32.3 21.7 32.3 21.9 32.3 C 22 32.3 22.099999999999998 32.4 22.2 32.5 L 22.4 32.7 C 23.599999999999998 34.400000000000006 25.2 35.2 27.2 35.2 C 29.099999999999998 35.2 30.5 34.300000000000004 32 32 L 32.8 30.8 C 32.9 30.7 33.099999999999994 30.6 33.199999999999996 30.6 C 33.3 30.7 33.5 30.8 33.5 30.9 L 33.5 30.9 z" stroke-linecap="round" />
</g>
		<g transform="matrix(5.71 0 0 5.71 29.58 -21.12)" id="d_O6Lrh5zE8zTygSsa70D"  >
<path style="stroke: none; stroke-width: 1; stroke-dasharray: none; stroke-linecap: butt; stroke-dashoffset: 0; stroke-linejoin: miter; stroke-miterlimit: 4; fill: rgb(0,60,132); fill-rule: evenodd; opacity: 1;" vector-effect="non-scaling-stroke"  transform=" translate(-33.2, -23.5)" d="M 33.2 22.2 C 32.5 22.2 31.900000000000002 22.8 31.900000000000002 23.5 C 31.900000000000002 24.2 32.5 24.8 33.2 24.8 C 33.900000000000006 24.8 34.5 24.2 34.5 23.5 C 34.5 22.7 34 22.2 33.2 22.2" stroke-linecap="round" />
</g>
		<g transform="matrix(5.71 0 0 5.71 0.17 74.24)" id="AW6bQBbtswnVK9-mNP4Iz"  >
<path style="stroke: none; stroke-width: 1; stroke-dasharray: none; stroke-linecap: butt; stroke-dashoffset: 0; stroke-linejoin: miter; stroke-miterlimit: 4; fill: rgb(0,60,132); fill-rule: evenodd; opacity: 1;" vector-effect="non-scaling-stroke"  transform=" translate(-28.05, -40.2)" d="M 40.8 40.9 L 15.2 40.9 C 14.799999999999999 40.9 14.5 40.6 14.5 40.199999999999996 C 14.5 39.8 14.8 39.49999999999999 15.2 39.49999999999999 L 40.9 39.49999999999999 C 41.3 39.49999999999999 41.6 39.79999999999999 41.6 40.199999999999996 C 41.5 40.6 41.2 40.9 40.8 40.9" stroke-linecap="round" />
</g>
</g>
</g>
</svg>