<?xml version="1.0" encoding="UTF-8" standalone="no" ?>
<!DOCTYPE svg PUBLIC "-//W3C//DTD SVG 1.1//EN" "http://www.w3.org/Graphics/SVG/1.1/DTD/svg11.dtd">
<svg xmlns="http://www.w3.org/2000/svg" xmlns:xlink="http://www.w3.org/1999/xlink" version="1.1" width="640" height="640" viewBox="0 0 640 640" xml:space="preserve">
<desc>Created with Fabric.js 4.6.0</desc>
<defs>
</defs>
<g transform="matrix(1 0 0 1 320.17 318.63)" id="yS4K_vyMv9HONb5jnT30f"  >
<path style="stroke: none; stroke-width: 1; stroke-dasharray: none; stroke-linecap: butt; stroke-dashoffset: 0; stroke-linejoin: miter; stroke-miterlimit: 4; fill: rgb(179,181,179); fill-rule: nonzero; opacity: 1;" vector-effect="non-scaling-stroke"  transform=" translate(-260.9, -301.53)" d="M 260.30274 0 L 521.80084 150.27422 L 521.16724 451.10493 L 520.58349 450.35775 L 260.9207 602.83546 L 260.9207 603.00958 L 260.77244 602.9225200000001 L 260.54288 603.0573200000001 L 260.54288 602.7877100000002 L 0.8388700000000426 450.27822000000015 L 0.6319700000000427 450.63616000000013 L 0.6311700000000426 450.25636000000014 L 0.5428800000000427 450.27828000000017 L 0.6309800000000426 450.1653900000002 L 4.263256414560601e-14 150.02536000000015 L 260.30274000000003 0.8073300000001495 z M 260.54289 385.72831 L 0.888430000000028 450.19249 L 0.857480000000028 450.24604 L 260.54289 513.6847 z M 260.9207 117.99688 L 260.9207 385.42166999999995 L 520.31 450.00767999999994 z M 260.30274 117.20591 L 260.30274 1.4098199999999963 L 1.6842699999999695 448.8157 L 260.38573999999994 117.31214999999997 z" stroke-linecap="round" />
</g>
</svg>