<?xml version="1.0" encoding="UTF-8" standalone="no"?>
<!DOCTYPE svg PUBLIC "-//W3C//DTD SVG 1.1//EN" "http://www.w3.org/Graphics/SVG/1.1/DTD/svg11.dtd">
<svg version="1.1" xmlns="http://www.w3.org/2000/svg" xmlns:xlink="http://www.w3.org/1999/xlink" preserveAspectRatio="xMidYMid meet" viewBox="0 0 640 640" width="640" height="640"><defs><path d="M416.76 327.17C393.42 327.17 374.52 308.26 374.52 284.93C374.52 282.46 374.73 280.05 375.14 277.71C365.04 271.89 284.23 225.36 274.12 219.54C266.77 225.75 257.27 229.49 246.9 229.49C223.56 229.49 204.65 210.58 204.65 187.25C204.65 163.92 223.56 145.01 246.9 145.01C270.24 145.01 289.15 163.92 289.15 187.25C289.15 189.94 288.87 192.57 288.39 195.12C298.46 200.91 378.98 247.28 389.04 253.07C396.46 246.61 406.15 242.68 416.76 242.68C440.08 242.68 458.99 261.6 458.99 284.93C458.99 308.26 440.08 327.17 416.76 327.17M288.63 383.27C288.63 406.6 269.73 425.51 246.39 425.51C223.07 425.51 204.16 406.6 204.16 383.27C204.16 359.93 223.07 341.02 246.39 341.02C256.88 341.02 266.46 344.85 273.84 351.17C281.2 346.94 340.12 313.08 347.48 308.85C350.63 317.93 355.52 326.21 361.74 333.28C354.36 337.52 295.33 371.45 287.96 375.69C288.39 378.15 288.63 380.68 288.63 383.27M542.63 125.47C422.28 56.7 355.42 18.49 342.05 10.85C328.39 3.05 311.62 3.05 297.96 10.85C277.9 22.31 117.45 114.01 97.39 125.47C83.54 133.38 75 148.11 75 164.05C75 187.37 75 373.89 75 397.21C75 413.08 83.47 427.75 97.21 435.69C120.23 448.98 235.33 515.41 442.51 635L442.57 493.43C502.69 458.79 536.09 439.54 542.77 435.69C556.54 427.75 565.02 413.08 565.02 397.19C565.02 373.88 565.02 187.36 565.02 164.05C565.02 148.11 556.47 133.38 542.63 125.47" id="ebYVpRmf"></path></defs><g><g><g><use xlink:href="#ebYVpRmf" opacity="1" fill="#042b48" fill-opacity="1"></use><g><use xlink:href="#ebYVpRmf" opacity="1" fill-opacity="0" stroke="#000000" stroke-width="1" stroke-opacity="0"></use></g></g></g></g></svg>