<?xml version="1.0" encoding="UTF-8" standalone="no" ?>
<!DOCTYPE svg PUBLIC "-//W3C//DTD SVG 1.1//EN" "http://www.w3.org/Graphics/SVG/1.1/DTD/svg11.dtd">
<svg xmlns="http://www.w3.org/2000/svg" xmlns:xlink="http://www.w3.org/1999/xlink" version="1.1" width="500" height="500" viewBox="0 0 500 500" xml:space="preserve">
<desc>Created with Fabric.js 5.3.0</desc>
<defs>
</defs>
<g transform="matrix(1 0 0 1 250.4999998273 247.050342962)" id="ZiOync0hV4k9bN53OV3u1"  >
<path style="stroke: rgb(214,214,214); stroke-width: 0; stroke-dasharray: none; stroke-linecap: butt; stroke-dashoffset: 0; stroke-linejoin: miter; stroke-miterlimit: 4; fill: rgb(0,0,0); fill-rule: nonzero; opacity: 1;" vector-effect="non-scaling-stroke"  transform=" translate(-232.2241377593, -175.981375962)" d="M 410.32552 210.56139 L 358.47724 239.41103999999999 L 283.79586 226.35172999999998 L 302.96103 121.48274999999998 L 192.15724 196.22069 L 0 14.913109999999989 L 311.78483 115.53103999999999 L 303.49062 121.12553999999999 L 367.05931 143.00553 L 410.32552 210.56139 z M 302.01437 123.33247 L 283.54587 226.75265000000002 L 291.24636999999996 228.16376000000002 L 285.36828999999994 257.70896000000005 L 193.05931999999996 351.96275 L 192.15724999999995 197.22068000000002 z M 137.14069 236.82896 L 148.0069 314.61379 L 71.2069 249.35034 z M 237.06897 308.05103 L 296.74621 351.96275 L 194.05931000000004 351.96275 z M 390.16414 0 L 464.44827999999995 47.66069 L 464.44827999999995 65.81793 L 324.66896999999994 47.66069 z M 411.32552 211.56138 L 401.74207 253.17241 L 387.3669 224.89379000000002 z M 311.53481 116.5967 L 310.43077999999997 122.22136 L 305.32408 120.72517 z M 424.12004 143.18757 L 391.32377 178.594 L 367.38763 141.70259 L 312.78487 123.15699999999998 L 324.66901 48.660679999999985 L 402.93384000000003 58.83170999999999 z M 191.33104 225.53379 L 71.2069 248.35034000000002 L 145.61518 153.24413 L 191.15725 196.22068000000002 L 191.33104 225.53378 z" stroke-linecap="round" />
</g>
</svg>