<?xml version="1.0" encoding="utf-8"?>
<!-- Generator: Adobe Illustrator 23.0.1, SVG Export Plug-In . SVG Version: 6.00 Build 0)  -->
<svg version="1.1" id="_x32_" xmlns="http://www.w3.org/2000/svg" xmlns:xlink="http://www.w3.org/1999/xlink" x="0px" y="0px"
	 viewBox="0 0 90.7 90.7" style="enable-background:new 0 0 90.7 90.7;" xml:space="preserve">
<style type="text/css">
	.st0{fill:#231815;}
</style>
<path class="st0" d="M80.3,36.5c-0.7-0.5-2.3-0.9-3.8-0.7c-2.5,0.5-11.3,4.1-16.9,3.4C52.8,38,51.5,36,51,33.8
	c-0.5-1.6-0.5-3.6,1.4-5c1.8-1.6,19.4-16.2,21.2-18c3.4-3.4,5-7.2,5.6-9.2c0.2-0.7-0.2-0.9-1.1-0.5C71.5,4.9,42.7,21.8,38.6,25
	c-2.7,2.3-6.1,5.6-6.3,8.8c-2.5-0.2-9-0.2-12.4,1.6c-1.6,0.9-3.2,2-4.1,3.4c-2.7,0.2-3.6,0.7-4.5,1.4c-0.9,0.7-0.9,1.4-0.5,1.6
	c0.5,0.2,3.6,1.1,4.3,2c0.5,1.4,1.6,2.5,3.4,3.8c5,3.4,9.2,5.2,11.3,6.1c-0.7,1.1-1.1,2.5,0,4.3c1.8,2.9,25.5,27,30.2,31.8
	c0.5,0.5,0.9,0.5,0.9,0c0.2-1.4,0.2-4.3-1.4-7.2c-2-4.1-10.4-16.9-11.7-19.2c-1.1-2.3-1.4-3.6-1.6-4.7c-0.2-1.1-0.2-3.4,2.3-3.6
	c2.5-0.2,6.5-1.4,9-2.7c2.7-1.6,8.1-3.4,11.7-3.4c3.6-0.2,5-0.2,7.7-0.7c1.1-0.2,1.8-0.7,2.3-1.1c0.5-0.5,0.2-0.9-0.2-0.9
	c-1.8-0.2-7.9-0.5-8.1-2.9c0-2.9,6.5-5.4,9-6.1C80.5,36.9,80.8,36.7,80.3,36.5z M21.7,40.1c0,0.7-0.7,1.1-1.6,1.1
	c-0.7,0-1.4-0.7-1.1-1.6c0-0.7,0.7-1.4,1.6-1.1C21.3,38.5,21.9,39.2,21.7,40.1z M57.1,46.8c-0.5,4.1-6.1,6.8-12.6,6.1l-10.1-1.1
	c0,0-1.1-0.2-0.7-0.7c1.4-1.4,2.5-3.2,2.9-6.5c0.5-3.6-0.2-5.2-1.6-7c-0.5-0.7,0.7-0.7,0.7-0.7l10.6,1.4
	C52.8,38.7,57.8,42.8,57.1,46.8z"/>
</svg>
