<?xml version="1.0" encoding="UTF-8" standalone="no"?>
<!DOCTYPE svg PUBLIC "-//W3C//DTD SVG 1.1//EN" "http://www.w3.org/Graphics/SVG/1.1/DTD/svg11.dtd">
<svg version="1.1" xmlns="http://www.w3.org/2000/svg" xmlns:xlink="http://www.w3.org/1999/xlink" preserveAspectRatio="xMidYMid meet" viewBox="0 0 640 640" width="640" height="640"><defs><path d="M412.07 83.64C384.58 31.65 320.18 11.79 268.19 39.28C216.2 66.77 196.36 131.18 223.82 183.16C225.03 185.44 226.31 187.67 227.68 189.87C248.97 226.75 419.31 521.74 440.61 558.61C469.33 609.92 534.21 628.23 585.51 599.52C636.82 570.8 655.14 505.92 626.42 454.61C625.95 453.77 625.48 452.96 625 452.15C625 452.16 625 452.24 625 452.38L625 452.38C497.24 231.14 426.27 108.22 412.07 83.64Z" id="cX2nSNszE"></path><path d="M106.47 400.17C47.67 400.17 0 447.83 0 506.63C0 565.43 47.67 613.1 106.47 613.1C165.27 613.1 212.93 565.43 212.93 506.63C212.93 447.83 165.27 400.17 106.47 400.17Z" id="akfk18qbn"></path><path d="M30.94 424.17C38.66 418.8 43.48 415.44 45.41 414.1C120.69 361.74 223.19 419.25 217.74 510.78C217.62 512.86 217.31 518.04 216.81 526.33L316.35 353.33L218 183.13C215.95 178.48 214.67 175.57 214.16 174.4C210.5 166.09 208.14 157.27 207.16 148.24C207.07 147.37 206.83 145.18 206.45 141.67L207.45 116.88L30.94 424.17Z" id="e41FzzqWvU"></path></defs><g><g><g><use xlink:href="#cX2nSNszE" opacity="1" fill="#fbbc04" fill-opacity="1"></use><g><use xlink:href="#cX2nSNszE" opacity="1" fill-opacity="0" stroke="#000000" stroke-width="1" stroke-opacity="0"></use></g></g><g><use xlink:href="#akfk18qbn" opacity="1" fill="#fbbc04" fill-opacity="1"></use><g><use xlink:href="#akfk18qbn" opacity="1" fill-opacity="0" stroke="#000000" stroke-width="1" stroke-opacity="0"></use></g></g><g><use xlink:href="#e41FzzqWvU" opacity="1" fill="#fbbc04" fill-opacity="1"></use><g><use xlink:href="#e41FzzqWvU" opacity="1" fill-opacity="0" stroke="#000000" stroke-width="0" stroke-opacity="1"></use></g></g></g></g></svg>