<?xml version="1.0" encoding="UTF-8" standalone="no"?>
<!DOCTYPE svg PUBLIC "-//W3C//DTD SVG 1.1//EN" "http://www.w3.org/Graphics/SVG/1.1/DTD/svg11.dtd">
<svg version="1.1" xmlns="http://www.w3.org/2000/svg" xmlns:xlink="http://www.w3.org/1999/xlink" preserveAspectRatio="xMidYMid meet" viewBox="0 0 480 480" width="480" height="480"><defs><path d="M48.25 240.01C48.24 240.01 48.22 240.03 48.19 240.07C50.32 242.28 60.97 253.34 80.15 273.25L224 422.5L319.62 329L310.21 306.79L289.35 329L239 374L179 316.99L134 328.89L80.17 273.23L128.12 223.45C108.94 203.54 98.29 192.47 96.16 190.26C96.17 190.26 96.18 190.25 96.18 190.25C87.69 181.46 82.92 169.53 82.91 157.08C82.91 131.16 103.14 110.14 128.11 110.14C128.11 110.14 128.11 110.14 128.12 110.14C140.11 110.15 151.6 115.1 160.07 123.91C160.07 123.91 160.08 123.91 160.09 123.9C162.22 126.11 172.87 137.17 192.05 157.08L239.99 107.3C220.81 87.39 210.16 76.33 208.03 74.12C208 74.15 207.98 74.17 207.98 74.18C186.8 52.16 158.08 39.78 128.11 39.76C65.69 39.76 15.1 92.29 15.1 157.09C15.12 188.2 27.05 218.02 48.25 240.01Z" id="c2bZSCy4MA"></path><path d="M272.92 77.1C270.79 79.31 260.14 90.38 240.96 110.29L193 160.09L240.95 209.87C288.9 160.09 315.53 132.44 320.86 126.91C320.88 126.92 320.88 126.92 320.89 126.92C329.36 118.12 340.85 113.17 352.83 113.16C377.8 113.15 398.04 134.16 398.05 160.08C398.05 160.09 398.05 160.09 398.05 160.09C398.04 172.53 393.26 184.47 384.78 193.26C384.78 193.26 384.79 193.26 384.8 193.27C382.67 195.48 372.01 206.55 352.83 226.47L400.78 276.25L400.78 276.24C419.96 256.33 430.62 245.27 432.75 243.06C432.72 243.02 432.71 243 432.7 242.99C453.9 221.01 465.82 191.19 465.85 160.08C465.85 95.28 415.26 42.75 352.84 42.75C322.88 42.77 294.15 55.15 272.97 77.16C272.96 77.15 272.95 77.14 272.92 77.1Z" id="e2Fzyd6MJx"></path><path d="M302.94 278.65L239.01 345.02L176.95 281.48L130.93 326.62L240 439.04L398.83 278.65L350.88 228.88L302.94 278.65Z" id="c8wtuQnRY"></path><path d="M192.04 162.34L81.49 275.84L128.6 324.66L176.07 278.49L240 212.12L192.05 162.34L192.04 162.34Z" id="k2l1wAKlX"></path></defs><g><g><g><use xlink:href="#c2bZSCy4MA" opacity="1" fill="#4788f1" fill-opacity="1"></use><g><use xlink:href="#c2bZSCy4MA" opacity="1" fill-opacity="0" stroke="#000000" stroke-width="1" stroke-opacity="0"></use></g></g><g><use xlink:href="#e2Fzyd6MJx" opacity="1" fill="#4788f1" fill-opacity="1"></use><g><use xlink:href="#e2Fzyd6MJx" opacity="1" fill-opacity="0" stroke="#000000" stroke-width="1" stroke-opacity="0"></use></g></g><g><use xlink:href="#c8wtuQnRY" opacity="1" fill="#4788f1" fill-opacity="1"></use><g><use xlink:href="#c8wtuQnRY" opacity="1" fill-opacity="0" stroke="#000000" stroke-width="1" stroke-opacity="0"></use></g></g><g><use xlink:href="#k2l1wAKlX" opacity="1" fill="#4788f1" fill-opacity="1"></use><g><use xlink:href="#k2l1wAKlX" opacity="1" fill-opacity="0" stroke="#000000" stroke-width="1" stroke-opacity="0"></use></g></g></g></g></svg>