<?xml version="1.0" encoding="UTF-8" standalone="no"?>
<!DOCTYPE svg PUBLIC "-//W3C//DTD SVG 1.1//EN" "http://www.w3.org/Graphics/SVG/1.1/DTD/svg11.dtd">
<svg version="1.1" xmlns="http://www.w3.org/2000/svg" xmlns:xlink="http://www.w3.org/1999/xlink" preserveAspectRatio="xMidYMid meet" viewBox="0 0 640 640" width="640" height="640"><defs><path d="M350.89 80.01L365.24 80.02L378.88 80.05L391.8 80.1L404.05 80.15L415.63 80.23L426.56 80.33L436.87 80.45L446.58 80.59L455.69 80.77L464.25 80.97L472.26 81.21L479.74 81.48L486.71 81.79L493.2 82.14L499.23 82.54L504.8 82.97L509.95 83.46L514.7 84L519.06 84.58L523.04 85.23L526.69 85.92L530 86.68L533.01 87.5L535.73 88.39L538.18 89.34L540.38 90.36L542.36 91.45L544.12 92.62L545.7 93.86L547.11 95.19L548.37 96.59L549.5 98.08L550.52 99.65L551.46 101.31L552.32 103.06L553.13 104.91L553.91 106.85L554.69 108.89L555.25 111.07L555.78 114.56L556.28 119.28L556.75 125.17L557.18 132.15L557.58 140.16L557.95 149.12L558.29 158.98L558.6 169.66L558.88 181.09L559.12 193.2L559.34 205.92L559.52 219.19L559.68 232.93L559.8 247.09L559.89 261.58L559.96 276.33L559.99 291.29L560 306.38L559.97 321.53L559.92 336.68L559.84 351.75L559.73 366.67L559.59 381.38L559.42 395.81L559.23 409.89L559 423.55L558.75 436.71L558.47 449.32L558.17 461.3L557.84 472.59L557.48 483.11L557.09 492.8L556.68 501.58L556.24 509.4L555.77 516.17L555.28 521.83L554.76 526.31L554.22 529.55L553.65 531.47L552.74 533.51L551.82 535.45L550.9 537.29L549.94 539.03L548.92 540.69L547.83 542.25L546.64 543.73L545.34 545.12L543.89 546.43L542.29 547.66L540.52 548.81L538.54 549.89L536.34 550.89L533.9 551.82L531.21 552.69L528.23 553.49L524.95 554.23L521.34 554.91L517.4 555.54L513.09 556.11L508.39 556.62L503.29 557.09L497.77 557.51L491.8 557.88L485.36 558.21L478.44 558.51L471.01 558.76L463.05 558.98L454.55 559.17L445.47 559.33L435.81 559.46L425.53 559.57L414.62 559.66L403.07 559.72L390.84 559.77L377.91 559.8L364.28 559.83L349.91 559.84L334.79 559.85L318.89 559.85L307.37 559.81L296.26 559.76L285.54 559.71L275.21 559.66L265.27 559.6L255.71 559.54L246.52 559.47L237.69 559.39L229.22 559.31L221.1 559.23L213.32 559.13L205.88 559.03L198.77 558.93L191.98 558.81L185.51 558.69L179.35 558.57L173.49 558.43L167.92 558.29L162.65 558.14L157.65 557.98L152.93 557.81L148.48 557.63L144.29 557.44L140.35 557.25L136.66 557.04L133.21 556.82L130 556.6L127.01 556.36L124.24 556.11L121.68 555.86L119.33 555.59L117.18 555.31L115.22 555.01L113.45 554.71L111.85 554.39L110.43 554.07L109.17 553.72L108.07 553.37L107.12 553L106.31 552.62L104.43 551.59L102.63 550.58L100.93 549.57L99.32 548.53L97.8 547.45L96.36 546.31L95 545.08L93.72 543.74L92.52 542.28L91.39 540.67L90.34 538.89L89.35 536.92L88.43 534.75L87.58 532.34L86.79 529.69L86.06 526.76L85.38 523.54L84.76 520.01L84.19 516.14L83.68 511.93L83.21 507.33L82.78 502.35L82.4 496.94L82.06 491.1L81.75 484.81L81.48 478.03L81.24 470.76L81.04 462.97L80.86 454.64L80.7 445.75L80.57 436.27L80.46 426.2L80.36 415.5L80.29 404.16L80.22 392.16L80.17 379.47L80.12 366.08L80.08 351.96L80.04 337.1L80 321.47L80 310.83L80.01 300.51L80.03 290.49L80.05 280.79L80.08 271.38L80.11 262.28L80.15 253.48L80.2 244.97L80.25 236.75L80.31 228.82L80.38 221.17L80.46 213.81L80.54 206.72L80.64 199.91L80.73 193.37L80.84 187.09L80.96 181.09L81.08 175.34L81.21 169.85L81.35 164.62L81.5 159.63L81.66 154.9L81.83 150.41L82.01 146.16L82.19 142.15L82.39 138.38L82.59 134.83L82.81 131.52L83.03 128.43L83.27 125.56L83.51 122.91L83.76 120.48L84.03 118.26L84.31 116.25L84.59 114.44L84.89 112.84L85.2 111.43L85.52 110.22L85.85 109.2L86.19 108.37L87.11 106.34L88.02 104.4L88.95 102.56L89.91 100.81L90.92 99.16L92.01 97.59L93.2 96.12L94.5 94.72L95.94 93.42L97.53 92.19L99.31 91.03L101.28 89.96L103.47 88.95L105.9 88.02L108.58 87.15L111.55 86.35L114.82 85.61L118.41 84.93L122.34 84.31L126.63 83.74L131.3 83.22L136.38 82.75L141.88 82.34L147.82 81.96L154.23 81.63L161.12 81.34L168.52 81.08L176.44 80.86L184.91 80.67L193.94 80.51L203.56 80.38L213.79 80.27L224.64 80.19L236.15 80.12L248.32 80.07L261.18 80.04L274.75 80.02L289.05 80L304.1 80L319.92 80L335.79 80L350.89 80.01ZM131.6 456.65L508.25 456.65L508.25 131.59L131.6 131.59L131.6 456.65ZM320.84 187.19L322.25 187.29L323.6 187.44L324.88 187.65L326.1 187.93L327.25 188.28L328.35 188.72L329.38 189.24L330.36 189.85L331.28 190.57L332.15 191.4L332.97 192.34L333.73 193.4L334.45 194.6L335.12 195.94L335.74 197.41L336.32 199.05L336.86 200.84L337.35 202.79L337.8 204.92L338.22 207.23L338.6 209.73L338.95 212.42L339.26 215.31L339.54 218.41L339.79 221.73L340.01 225.27L340.2 229.04L340.37 233.05L340.52 237.3L340.64 241.8L340.75 246.56L340.83 251.59L340.9 256.89L340.95 262.47L340.98 268.34L341.01 274.5L341.02 280.96L341.03 287.73L341.02 294.5L341.01 300.96L340.98 307.13L340.95 312.99L340.9 318.57L340.83 323.87L340.75 328.9L340.64 333.66L340.52 338.16L340.37 342.42L340.2 346.42L340.01 350.19L339.79 353.74L339.54 357.05L339.26 360.15L338.95 363.05L338.6 365.74L338.22 368.24L337.8 370.54L337.35 372.67L336.86 374.63L336.32 376.42L335.74 378.05L335.12 379.53L334.45 380.86L333.73 382.06L332.97 383.13L332.15 384.07L331.28 384.9L330.36 385.61L329.38 386.23L328.35 386.75L327.25 387.18L326.1 387.53L324.88 387.81L323.6 388.02L322.25 388.17L320.84 388.27L319.36 388.33L317.81 388.35L317.34 388.34L316.87 388.33L316.4 388.3L315.92 388.27L315.45 388.23L314.97 388.18L314.49 388.12L314.01 388.05L313.52 387.97L313.04 387.89L312.56 387.79L312.08 387.69L311.6 387.58L311.13 387.46L310.65 387.34L310.18 387.21L309.71 387.07L309.25 386.92L308.78 386.77L308.33 386.6L307.88 386.44L307.43 386.26L306.99 386.08L306.55 385.89L306.12 385.7L305.7 385.5L305.29 385.3L304.88 385.08L304.48 384.87L304.09 384.65L303.71 384.42L303.34 384.19L302.98 383.95L302.63 383.7L302.3 383.46L301.97 383.21L301.65 382.95L301.35 382.69L301.06 382.42L300.78 382.15L300.48 381.8L300.18 381.35L299.89 380.81L299.6 380.18L299.33 379.45L299.06 378.63L298.8 377.71L298.55 376.69L298.31 375.58L298.07 374.37L297.84 373.05L297.62 371.64L297.41 370.13L297.21 368.51L297.01 366.79L296.82 364.97L296.64 363.04L296.46 361L296.3 358.86L296.14 356.61L295.99 354.26L295.84 351.79L295.71 349.21L295.58 346.53L295.46 343.73L295.35 340.82L295.24 337.79L295.15 334.65L295.06 331.4L294.98 328.03L294.9 324.54L294.84 320.93L294.78 317.21L294.73 313.36L294.69 309.4L294.65 305.31L294.62 301.1L294.61 296.77L294.59 292.31L294.59 287.73L294.59 280.96L294.61 274.5L294.63 268.34L294.67 262.47L294.72 256.89L294.79 251.59L294.87 246.56L294.97 241.8L295.1 237.3L295.24 233.05L295.41 229.04L295.61 225.27L295.83 221.73L296.08 218.41L296.36 215.31L296.67 212.42L297.02 209.73L297.4 207.23L297.81 204.92L298.27 202.79L298.76 200.84L299.3 199.05L299.87 197.41L300.5 195.94L301.17 194.6L301.88 193.4L302.65 192.34L303.46 191.4L304.33 190.57L305.26 189.85L306.23 189.24L307.27 188.72L308.36 188.28L309.52 187.93L310.74 187.65L312.02 187.44L313.36 187.29L314.78 187.19L316.26 187.14L317.81 187.12L319.36 187.14L320.84 187.19ZM218.03 187.62L218.93 187.71L219.82 187.84L220.72 188.02L221.61 188.23L222.49 188.49L223.37 188.79L224.25 189.13L225.12 189.51L225.99 189.93L226.85 190.4L227.7 190.9L228.55 191.44L229.39 192.03L230.22 192.66L231.04 193.33L231.85 194.03L232.65 194.78L233.44 195.57L234.22 196.41L235.13 197.72L235.99 199.54L236.81 201.84L237.58 204.6L238.31 207.79L238.99 211.38L239.63 215.35L240.22 219.67L240.77 224.31L241.27 229.24L241.72 234.44L242.13 239.89L242.5 245.54L242.82 251.38L243.09 257.38L243.32 263.51L243.5 269.75L243.64 276.07L243.72 282.44L243.77 288.83L243.76 295.22L243.71 301.58L243.62 307.88L243.47 314.1L243.28 320.2L243.04 326.17L242.76 331.98L242.43 337.59L242.05 342.98L241.62 348.12L241.15 353L240.63 357.57L240.06 361.81L239.44 365.7L238.78 369.21L238.07 372.31L237.31 374.98L236.5 377.18L235.64 378.89L234.74 380.09L233.91 380.92L233.04 381.7L232.14 382.44L231.22 383.13L230.26 383.77L229.28 384.37L228.28 384.92L227.25 385.43L226.21 385.89L225.14 386.31L224.07 386.68L222.98 387L221.88 387.29L220.78 387.52L219.66 387.72L218.55 387.87L217.43 387.97L216.32 388.03L215.21 388.05L214.1 388.02L213 387.95L211.91 387.84L210.84 387.68L209.77 387.48L208.73 387.24L207.7 386.95L206.7 386.63L205.71 386.26L204.76 385.84L203.83 385.39L202.93 384.89L202.06 384.35L201.23 383.77L200.44 383.15L199.68 382.48L198.96 381.78L198.29 381.03L197.66 380.24L197.09 379.41L196.56 378.54L196.33 378.05L196.1 377.44L195.88 376.7L195.66 375.84L195.45 374.87L195.24 373.78L195.03 372.58L194.83 371.26L194.64 369.84L194.44 368.31L194.26 366.68L194.08 364.95L193.9 363.12L193.73 361.2L193.56 359.18L193.4 357.07L193.25 354.87L193.1 352.59L192.95 350.22L192.82 347.78L192.68 345.25L192.56 342.65L192.44 339.98L192.32 337.23L192.21 334.42L192.11 331.54L192.02 328.59L191.93 325.59L191.84 322.53L191.77 319.41L191.7 316.23L191.64 313.01L191.58 309.74L191.53 306.42L191.49 303.06L191.46 299.65L191.43 296.21L191.41 292.73L191.4 289.21L191.4 285.67L191.4 280.66L191.41 275.84L191.42 271.21L191.45 266.77L191.48 262.51L191.51 258.42L191.56 254.51L191.61 250.77L191.67 247.19L191.74 243.77L191.82 240.51L191.91 237.4L192.01 234.43L192.12 231.62L192.24 228.94L192.37 226.39L192.51 223.98L192.67 221.7L192.83 219.54L193.01 217.5L193.2 215.57L193.4 213.75L193.62 212.05L193.85 210.44L194.09 208.93L194.35 207.52L194.62 206.2L194.91 204.96L195.21 203.81L195.53 202.73L195.87 201.73L196.22 200.8L196.59 199.94L196.97 199.13L197.37 198.39L197.79 197.69L198.23 197.05L198.68 196.45L199.16 195.89L199.65 195.37L200.47 194.58L201.3 193.83L202.13 193.13L202.97 192.46L203.83 191.84L204.68 191.26L205.55 190.73L206.42 190.23L207.29 189.78L208.17 189.37L209.06 189L209.95 188.67L210.84 188.39L211.73 188.15L212.63 187.95L213.53 187.79L214.43 187.67L215.33 187.6L216.23 187.56L217.13 187.57L218.03 187.62ZM421.23 187.55L422.09 187.63L422.94 187.75L423.78 187.92L424.63 188.12L425.46 188.37L426.3 188.66L427.13 188.99L427.96 189.36L428.78 189.77L429.6 190.23L430.41 190.72L431.22 191.26L432.02 191.84L432.82 192.46L433.62 193.13L434.4 193.83L435.19 194.58L435.96 195.37L436.46 195.89L436.93 196.45L437.39 197.05L437.82 197.69L438.24 198.39L438.65 199.13L439.03 199.94L439.4 200.8L439.75 201.73L440.08 202.73L440.4 203.81L440.7 204.96L440.99 206.2L441.27 207.52L441.52 208.93L441.77 210.44L442 212.05L442.21 213.75L442.42 215.57L442.61 217.5L442.78 219.54L442.95 221.7L443.1 223.98L443.24 226.39L443.38 228.94L443.5 231.62L443.6 234.43L443.7 237.4L443.79 240.51L443.87 243.77L443.94 247.19L444 250.77L444.06 254.51L444.1 258.42L444.14 262.51L444.17 266.77L444.19 271.21L444.21 275.84L444.22 280.66L444.22 285.67L444.22 289.21L444.2 292.73L444.18 296.21L444.16 299.65L444.12 303.06L444.08 306.42L444.03 309.74L443.98 313.01L443.92 316.23L443.85 319.41L443.77 322.53L443.69 325.59L443.6 328.59L443.5 331.54L443.4 334.42L443.29 337.23L443.18 339.98L443.06 342.65L442.93 345.25L442.8 347.78L442.66 350.22L442.52 352.59L442.37 354.87L442.21 357.07L442.05 359.18L441.89 361.2L441.72 363.12L441.54 364.95L441.36 366.68L441.17 368.31L440.98 369.84L440.78 371.26L440.58 372.58L440.38 373.78L440.17 374.87L439.96 375.84L439.74 376.7L439.52 377.44L439.29 378.05L439.06 378.54L438.53 379.41L437.95 380.24L437.33 381.03L436.65 381.78L435.94 382.48L435.18 383.15L434.39 383.77L433.55 384.35L432.69 384.89L431.79 385.39L430.86 385.84L429.9 386.26L428.92 386.63L427.91 386.95L426.89 387.24L425.84 387.48L424.78 387.68L423.7 387.84L422.62 387.95L421.52 388.02L420.41 388.05L419.3 388.03L418.18 387.97L417.07 387.87L415.95 387.72L414.84 387.52L413.73 387.29L412.64 387L411.55 386.68L410.47 386.31L409.41 385.89L408.37 385.43L407.34 384.92L406.34 384.37L405.35 383.77L404.4 383.13L403.47 382.44L402.57 381.7L401.71 380.92L400.88 380.09L400.38 379.57L399.91 379.01L399.45 378.41L399.02 377.76L398.6 377.05L398.2 376.3L397.81 375.48L397.44 374.6L397.09 373.65L396.76 372.63L396.44 371.54L396.14 370.36L395.85 369.1L395.58 367.75L395.32 366.31L395.07 364.78L394.84 363.14L394.63 361.4L394.43 359.55L394.24 357.58L394.06 355.5L393.89 353.3L393.74 350.97L393.6 348.51L393.47 345.92L393.35 343.19L393.24 340.32L393.14 337.31L393.05 334.14L392.97 330.82L392.9 327.35L392.84 323.71L392.78 319.9L392.74 315.92L392.7 311.77L392.67 307.44L392.65 302.93L392.63 298.23L392.63 293.33L392.62 288.25L392.62 282.76L392.63 277.5L392.64 272.48L392.66 267.68L392.68 263.1L392.71 258.73L392.75 254.57L392.8 250.61L392.85 246.84L392.91 243.27L392.99 239.88L393.07 236.67L393.16 233.63L393.27 230.76L393.38 228.05L393.51 225.5L393.66 223.09L393.81 220.83L393.98 218.71L394.17 216.72L394.37 214.86L394.59 213.12L394.82 211.49L395.07 209.97L395.34 208.56L395.63 207.24L395.94 206.02L396.26 204.88L396.61 203.83L396.98 202.85L397.36 201.94L397.77 201.09L398.21 200.3L398.66 199.56L399.14 198.86L399.64 198.21L400.17 197.59L400.73 197L401.3 196.44L401.91 195.89L402.8 195.1L403.69 194.34L404.58 193.63L405.47 192.95L406.36 192.31L407.24 191.71L408.13 191.16L409.02 190.64L409.9 190.16L410.79 189.71L411.67 189.31L412.55 188.95L413.43 188.63L414.3 188.35L415.18 188.11L416.05 187.91L416.92 187.75L417.79 187.63L418.65 187.55L419.52 187.51L420.38 187.51L421.23 187.55Z" id="a2ue258v7L"></path></defs><g><g><g><use xlink:href="#a2ue258v7L" opacity="1" fill="#000000" fill-opacity="1"></use><g><use xlink:href="#a2ue258v7L" opacity="1" fill-opacity="0" stroke="#000000" stroke-width="1" stroke-opacity="0"></use></g></g></g></g></svg>