<svg xmlns="http://www.w3.org/2000/svg" xmlns:xlink="http://www.w3.org/1999/xlink" width="146" height="146" viewBox="0 0 146 146">
    <defs>
        <rect id="b" width="140" height="140" rx="26"/>
        <filter id="a" width="108.6%" height="108.6%" x="-4.3%" y="-2.1%" filterUnits="objectBoundingBox">
            <feOffset dy="3" in="SourceAlpha" result="shadowOffsetOuter1"/>
            <feGaussianBlur in="shadowOffsetOuter1" result="shadowBlurOuter1" stdDeviation="1.5"/>
            <feColorMatrix in="shadowBlurOuter1" values="0 0 0 0 0 0 0 0 0 0 0 0 0 0 0 0 0 0 0.1 0"/>
        </filter>
    </defs>
    <g fill="none" fill-rule="evenodd">
        <g transform="translate(3)">
            <use fill="#000" filter="url(#a)" xlink:href="#b"/>
            <use fill="#FFF" xlink:href="#b"/>
        </g>
        <g fill="#00C73C">
            <path fill-opacity=".6" d="M80.867 38.081H65.053c-1.489 0-2.8.956-3.258 2.368l-.637 1.953-19.204 59.104c.608.52 1.386.833 2.228.833H59.99a3.42 3.42 0 0 0 3.255-2.369l9.716-29.892 10.128-31.166a3.409 3.409 0 0 0-2.221-.831M123.5 42.56c.714-2.216-.938-4.479-3.262-4.479h-13.593a3.433 3.433 0 0 0-3.262 2.375l-.707 2.2-8.881 27.554-10.085 31.297c.604.52 1.383.832 2.221.832h15.81a3.434 3.434 0 0 0 3.263-2.376L123.5 42.56z"/>
            <path d="M84.126 40.45a3.425 3.425 0 0 0-3.26-2.369H65.054c-.838 0-1.617.31-2.221.831L76.069 79.66l6.603 20.311a3.426 3.426 0 0 0 3.259 2.369H101.74c.836 0 1.618-.313 2.222-.833L84.126 40.449zM42.533 40.457a3.426 3.426 0 0 0-3.262-2.376H25.678c-2.324 0-3.973 2.263-3.262 4.48l2.494 7.736 16.01 49.667a3.424 3.424 0 0 0 3.262 2.375H59.99c.835 0 1.613-.311 2.22-.832l-19.676-61.05z"/>
        </g>
    </g>
</svg>
