<?xml version="1.0" encoding="UTF-8" standalone="no"?>
<!DOCTYPE svg PUBLIC "-//W3C//DTD SVG 1.1//EN" "http://www.w3.org/Graphics/SVG/1.1/DTD/svg11.dtd">
<svg version="1.1" xmlns="http://www.w3.org/2000/svg" xmlns:xlink="http://www.w3.org/1999/xlink" preserveAspectRatio="xMidYMid meet" viewBox="0 0 640 640" width="640" height="640"><defs><path d="M24.07 176.35C21.55 180.39 24.41 183.92 36.85 191.48C87.61 222.57 158.37 264.76 160.05 264.76C162.23 264.76 291.66 186.77 295.35 183.24C297.04 181.56 297.37 179.88 296.2 177.53C294.01 172.65 165.43 95 159.71 95C156.86 95 131.31 109.62 90.46 134.33C55 155.85 25.08 174.84 24.07 176.35Z" id="apdj5T4d4"></path><path d="M344.94 174.17C343.59 175.18 342.59 177.7 342.59 179.71C342.59 182.74 354.69 190.64 409.99 224.26C449.65 248.29 478.4 264.76 480.08 264.26C485.79 262.75 614.54 183.92 615.55 181.39C616.05 179.88 616.05 177.7 615.21 176.35C612.86 172.15 483.77 95 479.07 95C476.21 95 450.83 109.46 410.83 133.66C375.87 154.84 346.28 173.16 344.94 174.17Z" id="b5KV9EJsRX"></path><path d="M10.12 285.77C10.16 291.35 10.32 319.26 10.63 369.48C49.45 393.08 71.02 406.19 75.34 408.81C110.97 430.32 141.39 448.48 143.07 448.98C150.97 451.5 150.97 451.17 150.97 363.76C150.97 358.29 150.97 330.95 150.97 281.74C147.75 279.32 145.95 277.97 145.59 277.71C137.36 271.65 17.35 199.21 15.5 199.21C14.66 199.21 12.98 199.88 11.8 200.56C10.12 201.73 9.79 219.88 10.12 285.77Z" id="c4X14sGuDa"></path><path d="M183.75 275.86C183.75 280.06 187.95 283.08 237.54 313C267.12 330.99 294.51 347.29 298.38 349.14C311.15 355.53 310.65 358.38 310.65 275.86C310.65 201.06 310.48 199.04 304.1 199.38C302.58 199.38 275.02 215.68 242.58 235.35C188.29 268.46 183.75 271.65 183.75 275.86Z" id="b1eldGfkyr"></path><path d="M329.14 348.97C330.15 350.65 332.16 352.17 333.85 352.17C335.36 352.17 363.26 336.03 395.53 316.36C451.5 282.41 454.36 280.56 454.36 275.69C454.36 270.98 451.5 269.13 395.53 235.01C363.26 215.35 335.36 199.21 333.85 199.21C332.16 199.21 330.15 200.72 329.14 202.4C326.79 206.94 326.79 344.43 329.14 348.97Z" id="c3SYBJqFIg"></path><path d="M530.84 254.17C509.99 266.78 491.67 278.55 490.16 280.39C487.3 283.42 487.14 289.81 487.14 363.93C487.14 434.86 487.47 444.61 489.82 446.96C491.17 448.48 493.19 449.65 494.19 449.65C496.21 449.65 615.89 377.55 624.63 371.16C624.98 370.89 626.78 369.55 630 367.12C630 317.91 630 290.57 630 285.1C630 202.07 629.84 199.21 623.95 199.21C622.94 199.21 610 206.44 595.38 215.35C580.59 224.26 551.68 241.74 530.84 254.17Z" id="ebq3mW5vr"></path><path d="M169.46 373.34C169.46 446.29 169.46 447.8 172.82 448.81C175.35 449.65 191.65 440.58 235.85 414.02C294.51 378.89 299.89 374.86 296.53 369.14C294.51 366.12 178.37 296.7 175.01 296.7C173.16 296.7 171.14 297.2 170.64 297.88C169.97 298.38 169.46 332.5 169.46 373.34Z" id="d2TGil4pNO"></path><path d="M342.08 370.99C341.58 372.5 342.08 375.02 343.26 376.37C345.11 378.89 449.65 442.76 459.74 447.64C470.66 452.85 470.5 454.7 469.99 371.66C469.96 366.72 469.79 342.01 469.49 297.54C466.46 297.34 464.78 297.23 464.44 297.2C460.58 297.03 446.29 304.93 401.08 332.5C368.13 352.5 342.42 369.31 342.08 370.99Z" id="a3ZKPbHcM"></path><path d="M183.92 466.97C182.57 468.98 182.57 470.66 183.92 472.68C184.93 474.36 211.82 491.34 243.59 510.67C284.77 535.54 302.58 545.46 305.61 545.12C305.89 545.09 307.29 544.92 309.81 544.62L309.81 469.82L309.81 395.03C306.78 394.82 305.1 394.71 304.77 394.69C300.9 394.35 287.12 401.92 242.75 429.15C211.48 448.31 184.93 465.28 183.92 466.97Z" id="e2VnfnaAW3"></path><path d="M329.14 542.27C330.15 543.95 332.33 545.46 334.18 545.46C335.86 545.46 363.93 529.49 396.37 509.83C450.33 477.22 455.2 473.86 455.2 469.82C455.2 465.62 450.33 462.26 396.54 429.65C361.07 408.14 336.37 394.19 333.85 394.19C331.49 394.19 328.97 395.36 328.47 396.88C326.62 401.58 327.29 538.74 329.14 542.27Z" id="bXbeDSVc9"></path></defs><g><g><g><use xlink:href="#apdj5T4d4" opacity="1" fill="#000000" fill-opacity="1"></use><g><use xlink:href="#apdj5T4d4" opacity="1" fill-opacity="0" stroke="#000000" stroke-width="1" stroke-opacity="0"></use></g></g><g><use xlink:href="#b5KV9EJsRX" opacity="1" fill="#000000" fill-opacity="1"></use><g><use xlink:href="#b5KV9EJsRX" opacity="1" fill-opacity="0" stroke="#000000" stroke-width="1" stroke-opacity="0"></use></g></g><g><use xlink:href="#c4X14sGuDa" opacity="1" fill="#000000" fill-opacity="1"></use><g><use xlink:href="#c4X14sGuDa" opacity="1" fill-opacity="0" stroke="#000000" stroke-width="1" stroke-opacity="0"></use></g></g><g><use xlink:href="#b1eldGfkyr" opacity="1" fill="#000000" fill-opacity="1"></use><g><use xlink:href="#b1eldGfkyr" opacity="1" fill-opacity="0" stroke="#000000" stroke-width="1" stroke-opacity="0"></use></g></g><g><use xlink:href="#c3SYBJqFIg" opacity="1" fill="#000000" fill-opacity="1"></use><g><use xlink:href="#c3SYBJqFIg" opacity="1" fill-opacity="0" stroke="#000000" stroke-width="1" stroke-opacity="0"></use></g></g><g><use xlink:href="#ebq3mW5vr" opacity="1" fill="#000000" fill-opacity="1"></use><g><use xlink:href="#ebq3mW5vr" opacity="1" fill-opacity="0" stroke="#000000" stroke-width="1" stroke-opacity="0"></use></g></g><g><use xlink:href="#d2TGil4pNO" opacity="1" fill="#000000" fill-opacity="1"></use><g><use xlink:href="#d2TGil4pNO" opacity="1" fill-opacity="0" stroke="#000000" stroke-width="1" stroke-opacity="0"></use></g></g><g><use xlink:href="#a3ZKPbHcM" opacity="1" fill="#000000" fill-opacity="1"></use><g><use xlink:href="#a3ZKPbHcM" opacity="1" fill-opacity="0" stroke="#000000" stroke-width="1" stroke-opacity="0"></use></g></g><g><use xlink:href="#e2VnfnaAW3" opacity="1" fill="#000000" fill-opacity="1"></use><g><use xlink:href="#e2VnfnaAW3" opacity="1" fill-opacity="0" stroke="#000000" stroke-width="1" stroke-opacity="0"></use></g></g><g><use xlink:href="#bXbeDSVc9" opacity="1" fill="#000000" fill-opacity="1"></use><g><use xlink:href="#bXbeDSVc9" opacity="1" fill-opacity="0" stroke="#000000" stroke-width="1" stroke-opacity="0"></use></g></g></g></g></svg>