<svg id="레이어_1" data-name="레이어 1" xmlns="http://www.w3.org/2000/svg" viewBox="0 0 400 400"><defs><style>.cls-1{fill:none;}.cls-2{opacity:0.6;}.cls-3{fill:#fff;}.cls-4,.cls-5{fill:#7c7c7c;}.cls-5{opacity:0.6;}</style></defs><title>LINE WORKS</title><rect class="cls-1" width="400" height="400"/><g class="cls-2"><path class="cls-3" d="M33.23,179.88A33.15,33.15,0,0,1,.12,146.77V33.23A33.15,33.15,0,0,1,33.23.12H146.77a33.16,33.16,0,0,1,33.11,33.11V146.77a33.16,33.16,0,0,1-33.11,33.11Z" transform="translate(110 110)"/><path class="cls-4" d="M146.77.25a33,33,0,0,1,33,33V146.77a33,33,0,0,1-33,33H33.23a33,33,0,0,1-33-33V33.23a33,33,0,0,1,33-33H146.77m0-.25H33.23A33.23,33.23,0,0,0,0,33.23V146.77A33.23,33.23,0,0,0,33.23,180H146.77A33.23,33.23,0,0,0,180,146.77V33.23A33.23,33.23,0,0,0,146.77,0Z" transform="translate(110 110)"/></g><path class="cls-5" d="M100.22,48.46H79.78a4.44,4.44,0,0,0-4.22,3.06l-.82,2.53L49.91,130.46a4.46,4.46,0,0,0,2.88,1.08H73.23a4.43,4.43,0,0,0,4.21-3.06L90,89.83h0l13.09-40.29A4.36,4.36,0,0,0,100.22,48.46Z" transform="translate(110 110)"/><path class="cls-5" d="M155.34,54.25a4.43,4.43,0,0,0-4.22-5.79H133.55a4.45,4.45,0,0,0-4.22,3.07l-.91,2.85L116.94,90h0l-13,40.46a4.36,4.36,0,0,0,2.87,1.08h20.44a4.44,4.44,0,0,0,4.22-3.07Z" transform="translate(110 110)"/><path class="cls-4" d="M104.44,51.52a4.45,4.45,0,0,0-4.22-3.06H79.78a4.34,4.34,0,0,0-2.87,1.08L94,102.22l8.54,26.26a4.43,4.43,0,0,0,4.21,3.06h20.44a4.41,4.41,0,0,0,2.87-1.08Z" transform="translate(110 110)"/><path class="cls-4" d="M50.66,51.53a4.43,4.43,0,0,0-4.22-3.07H28.87a4.44,4.44,0,0,0-4.22,5.79l3.23,10,20.7,64.21a4.41,4.41,0,0,0,4.21,3.07H73.23a4.36,4.36,0,0,0,2.87-1.08Z" transform="translate(110 110)"/></svg>