<?xml version="1.0" encoding="UTF-8" standalone="no" ?>
<!DOCTYPE svg PUBLIC "-//W3C//DTD SVG 1.1//EN" "http://www.w3.org/Graphics/SVG/1.1/DTD/svg11.dtd">
<svg xmlns="http://www.w3.org/2000/svg" xmlns:xlink="http://www.w3.org/1999/xlink" version="1.1" width="640" height="640" viewBox="0 0 640 640" xml:space="preserve">
<desc>Created with Fabric.js 5.3.0</desc>
<defs>
</defs>
<g transform="matrix(2.0688239737 0 0 2.0688239578 320 320)" id="VXIv8tRRTr0dQw4TNk2vI"  >
<path style="stroke: none; stroke-width: 1; stroke-dasharray: none; stroke-linecap: butt; stroke-dashoffset: 0; stroke-linejoin: miter; stroke-miterlimit: 4; fill: rgb(151,75,139); fill-rule: nonzero; opacity: 1;"  transform=" translate(0, 0)" d="M -115.99466 23 C -115.99466 -3.162700000000001 -116.06824 -28.825960000000002 -115.86891 -54.48711 C -115.85103 -56.78873 -114.63577 -59.63659 -113.01474 -61.28474 C -95.83875 -78.74811 -78.51533 -96.06798 -61.067690000000006 -113.26008999999999 C -59.527910000000006 -114.77732999999999 -56.827540000000006 -115.88190999999999 -54.66277000000001 -115.88770999999998 C -1.171430000000008 -116.03101999999998 52.320379999999986 -116.00575999999998 105.81209 -115.99245999999998 C 112.33288999999999 -115.99083999999998 115.99315 -112.41045999999999 115.99527 -105.98738999999998 C 116.01294 -52.329029999999975 116.03279 1.3293900000000178 115.89894000000001 54.98743000000002 C 115.89391 57.004950000000015 114.82852000000001 59.51676000000002 113.40604 60.958210000000015 C 96.08377 78.51151000000002 78.64905 95.95517000000001 61.07869 113.25992000000002 C 59.538380000000004 114.77696000000002 56.83852 115.88190000000002 54.673770000000005 115.88771000000003 C 1.3490600000000015 116.03113000000003 -51.97609 116.00307000000002 -105.30117 115.99647000000003 C -112.72549 115.99555000000004 -115.99113 112.62231000000003 -115.9926 104.98786000000003 C -115.99784 77.82523000000003 -115.99465 50.662620000000025 -115.99465 22.999990000000025 M 52.50534 -108 C 18.522639999999996 -108 -15.460349999999998 -108.05547 -49.44212000000001 -107.87708 C -51.74504000000001 -107.86499 -54.58329000000001 -106.65649 -56.24816000000001 -105.04776000000001 C -66.90793000000001 -94.74743000000001 -77.30452000000001 -84.17488000000002 -87.79742000000002 -73.70164000000001 C -92.10265000000001 -69.40447000000002 -96.43220000000002 -65.13166000000001 -101.29867000000002 -60.30418000000001 C -31.00711000000001 -60.30418000000001 38.31551999999999 -60.30418000000001 108.00524999999999 -60.30418000000001 C 108.00524999999999 -74.06719000000001 108.02587999999999 -87.52925 107.99544999999999 -100.99119000000002 C 107.98267999999999 -106.63575000000002 106.63646999999999 -107.98037000000002 100.98083 -107.99027000000002 C 85.15571 -108.01799000000003 69.3305 -107.99996000000003 52.50534 -107.99999000000003 M 27.50534 -52 C 1.096070000000001 -52 -25.3132 -52 -51.59039 -52 C -51.59039 -35.585589999999996 -51.59039 -19.872 -51.59039 -4.260420000000003 C 1.7265999999999977 -4.260420000000003 54.638940000000005 -4.260420000000003 107.68948999999999 -4.260420000000003 C 107.68948999999999 -20.23429 107.68948999999999 -35.94603000000001 107.68948999999999 -52 C 81.08519999999999 -52 54.79525999999999 -52 27.505329999999987 -52 M 108.00534 28.49997 C 108.00534 20.41193 108.00534 12.323900000000002 108.00534 4.39282 C 54.25404 4.39282 1.2235900000000015 4.39282 -51.72312000000001 4.39282 C -51.72312000000001 20.38173 -51.72312000000001 35.97641 -51.72312000000001 51.69563 C 1.5788199999999932 51.69563 54.60874 51.69563 108.00534 51.69563 C 108.00534 44.09785 108.00534 36.7989 108.00534 28.49997 M -4.49466 108 C 13.486540000000002 108 31.469060000000002 108.10219 49.44736 107.87373 C 51.75656 107.84437 54.59291 106.66364999999999 56.252930000000006 105.05461 C 67.6084 94.04795999999999 78.70825 82.77777 89.90547000000001 71.60754 C 93.5087 68.01301 97.15704000000001 64.46371 101.41862 60.26992 C 49.71907 60.26992 -0.9197899999999919 60.26992 -51.67753999999999 60.26992 C -51.67753999999999 76.24799 -51.67753999999999 91.95432 -51.67753999999999 107.99999 C -36.07337 107.99999 -20.784019999999995 107.99999 -4.494659999999996 107.99999 M -59.99466 -12.55081 C -59.99466 -25.62431 -59.99466 -38.69782 -59.99466 -51.58575 C -76.43696 -51.58575 -92.14247 -51.58575 -107.71276 -51.58575 C -107.71276 -35.5826 -107.71276 -19.994999999999997 -107.71276 -4.327799999999996 C -91.72333 -4.327799999999996 -76.01788 -4.327799999999996 -59.99466 -4.327799999999996 C -59.99466 -6.958629999999996 -59.99466 -9.264569999999996 -59.99466 -12.550809999999997 M -79.49509 4 C -88.91035000000001 4 -98.32562 4 -107.59814 4 C -107.59814 20.41386 -107.59814 36.11981 -107.59814 51.73598 C -91.61313 51.73598 -76.02597 51.73598 -60.30274 51.73598 C -60.30274 35.76622 -60.30274 20.062119999999997 -60.30274 4 C -66.56898 4 -72.53215 4 -79.49509 4 M -107.99466 94.45774 C -107.99466 96.29029 -107.99757 98.12283000000001 -107.99414 99.95537 C -107.9811 106.92192 -106.92563 107.99138 -100.00567 107.99808 C -91.67581999999999 108.00614 -83.34594999999999 108 -75.01608999999999 108 C -70.09187999999999 108 -65.16767999999999 108 -60.23104999999999 108 C -60.23104999999999 91.69299000000001 -60.23104999999999 76.09724 -60.23104999999999 60.29437 C -76.18167 60.29437 -91.89496 60.29437 -107.99465999999998 60.29437 C -107.99465999999998 71.5464 -107.99465999999998 82.5085 -107.99465999999998 94.45773 z" stroke-linecap="round" />
</g>
</svg>