<?xml version="1.0" encoding="UTF-8" standalone="no"?>
<!DOCTYPE svg PUBLIC "-//W3C//DTD SVG 1.1//EN" "http://www.w3.org/Graphics/SVG/1.1/DTD/svg11.dtd">
<svg version="1.1" xmlns="http://www.w3.org/2000/svg" xmlns:xlink="http://www.w3.org/1999/xlink" preserveAspectRatio="xMidYMid meet" viewBox="0 0 640 640" width="640" height="640"><defs><path d="M21.45 98.67C11.99 118 12.12 116 11.99 250.62C11.99 361.66 12.12 370.19 14.39 374.59C19.05 384.05 29.85 387.65 39.58 383.12C49.31 378.45 48.51 387.92 49.31 249.96C49.76 167.31 49.96 128.72 49.93 134.17C49.96 128.78 51.16 123.46 53.44 118.58C51.13 123.52 51.22 123.33 53.71 118C58.51 107.6 67.57 98.53 77.84 93.74C83.26 91.25 84.26 90.79 80.84 92.35C84.22 90.81 87.89 90 91.61 90C122.04 90 198.14 90 319.9 90C439.96 90 514.99 90 545.01 90C550.82 90 556.56 91.28 561.83 93.74C556.5 91.25 556.5 91.25 561.83 93.74C572.23 98.53 581.29 107.6 586.09 117.86C588.58 123.28 588.65 123.43 586.3 118.31C588.62 123.37 589.82 128.88 589.82 134.45C589.82 151.27 589.82 193.33 589.82 260.62C589.82 328 589.82 370.11 589.82 386.95C589.82 392.41 588.59 397.8 586.21 402.71C588.62 397.74 588.4 398.18 585.56 404.05C580.49 414.31 573.8 422.38 563.13 427.44C563.13 427.44 563.13 427.44 563.13 427.44C557.56 430.09 551.47 431.46 545.3 431.46C479.27 431.42 442.57 431.42 435.2 431.46C343.89 431.99 314.57 431.64 312.44 432.84C310.84 433.77 307.9 436.3 306.04 438.7C299.64 446.3 302.17 459.9 310.97 465.23C315.1 467.76 318.57 467.4 436 467.4C555.3 467.4 557.03 467.9 565.96 465.1C598.36 455.1 620.22 430.97 625.81 399.38C628.75 382.45 628.75 137.06 625.81 120.66C619.95 87.6 593.22 58.88 560.17 53.01C544.7 50.21 97.18 48.51 81.99 51.18C57.86 55.58 32.65 76.14 21.45 98.67Z" id="dIXYZvpvk"></path><path d="M338.56 218.26C338.56 219.77 338.56 227.32 338.56 240.92C323.68 240.92 315.42 240.92 313.77 240.92C286.04 240.92 282.04 241.85 277.38 249.45C275.91 251.72 270.85 267.05 265.91 283.58C261.12 300.1 255.65 318.1 253.92 323.56C252.18 329.03 248.32 341.83 245.39 351.82C242.32 361.95 237.52 378.48 234.46 388.48C231.52 398.61 227.66 411.41 225.93 416.87C224.19 422.34 218.86 440.2 214.06 456.33C209.26 472.59 204.73 487.38 203.93 489.38C202.73 492.85 202.6 492.85 187.27 492.85C175.94 492.85 171.94 492.45 171.81 491.12C171.81 490.32 171.54 479.25 171.41 466.86C171.01 441.8 170.21 438.46 163.28 434.2C159.14 431.67 156.35 431.53 91.83 431.53C26.78 431.53 24.52 431.67 20.25 434.2C11.99 439.26 11.99 439.4 11.99 510.84C11.99 582.29 11.99 582.42 20.25 587.49C24.52 590.02 26.78 590.15 91.03 590.15C149.81 590.15 158.08 589.89 162.08 588.02C169.94 584.29 171.14 580.29 171.41 556.16C171.67 544.43 171.81 533.5 171.81 531.77C171.82 531.58 171.86 530.6 171.94 528.84C187.38 528.84 195.95 528.84 197.67 528.84C220.59 528.84 223.66 528.57 227.53 526.17C229.79 524.84 232.32 522.57 233.12 521.11C234.32 518.98 252.05 460.99 263.91 420.87C271.65 394.34 283.91 353.42 303.37 289.17C303.59 288.44 304.7 284.8 306.7 278.24L322.56 278.24L338.29 278.24L338.83 303.57C338.99 314.03 339.1 320.57 339.14 323.19C339.2 326.96 339.94 330.69 341.33 334.2C341.46 334.54 340.18 331.3 340.41 331.9C341.42 334.45 343.42 336.48 345.95 337.53C346.6 337.8 342.39 336.05 342.49 336.09C346.93 337.94 351.7 338.89 356.52 338.89C368.87 338.89 411.37 338.89 418.27 338.89C485.05 338.89 487.32 338.76 490.78 336.23C497.98 330.9 497.85 332.36 497.85 259.45C497.85 192.8 497.85 191.73 495.05 188C489.72 180.8 490.92 180.94 417.74 180.94C349.89 180.94 349.62 180.94 345.89 183.87C339.49 188.8 338.56 193.33 338.56 218.26ZM133.29 552.83L91.7 552.57L49.98 552.17C49.74 528.17 49.6 514.84 49.58 512.18C49.44 490.18 49.58 471.52 49.98 470.59C50.38 469.26 59.84 468.86 91.96 468.86C94.72 468.86 108.49 468.86 133.29 468.86L133.29 510.84L133.29 552.83Z" id="bvaMTSuPP"></path></defs><g><g><g><use xlink:href="#dIXYZvpvk" opacity="1" fill="#000000" fill-opacity="1"></use><g><use xlink:href="#dIXYZvpvk" opacity="1" fill-opacity="0" stroke="#000000" stroke-width="1" stroke-opacity="0"></use></g></g><g><use xlink:href="#bvaMTSuPP" opacity="1" fill="#000000" fill-opacity="1"></use><g><use xlink:href="#bvaMTSuPP" opacity="1" fill-opacity="0" stroke="#000000" stroke-width="1" stroke-opacity="0"></use></g></g></g></g></svg>