<?xml version="1.0" encoding="UTF-8" standalone="no"?>
<!DOCTYPE svg PUBLIC "-//W3C//DTD SVG 1.1//EN" "http://www.w3.org/Graphics/SVG/1.1/DTD/svg11.dtd">
<svg version="1.1" xmlns="http://www.w3.org/2000/svg" xmlns:xlink="http://www.w3.org/1999/xlink" preserveAspectRatio="xMidYMid meet" viewBox="0 0 640 640" width="640" height="640"><defs><path d="M0 640L320 640L640 640L640 320L640 0L320 0L0 0L0 320L0 640ZM576.71 150.04C584.89 161.78 584.89 162.84 585.96 275.56C586.67 387.91 586.67 389.33 578.84 403.2C573.87 412.09 564.62 420.27 555.02 425.6C539.73 433.78 537.6 433.78 428.44 433.78C312.18 433.78 309.33 433.42 309.33 417.78C309.33 402.13 312.53 401.78 425.96 401.78C433.16 401.78 469.19 401.78 534.04 401.78L544.36 391.47L554.67 381.16C554.67 320.36 554.67 286.58 554.67 279.82C554.67 224 553.6 175.64 552.53 172.44C546.49 156.8 541.87 156.44 321.78 156.44C307.89 156.44 238.44 156.44 113.42 156.44L104.89 165.33L96 173.87C96 229.55 96 260.48 96 266.67C96 354.49 95.64 359.47 88.89 366.22C84.98 370.13 80 373.33 78.22 373.33C76.09 373.33 71.47 370.13 67.56 366.22C60.8 359.47 60.44 354.49 60.44 270.93C60.44 178.13 62.58 163.2 76.44 146.49C95.29 123.73 87.11 124.44 324.62 124.44C532.98 124.44 541.16 124.8 554.67 131.56C562.13 135.47 572.09 143.64 576.71 150.04ZM465.78 279.11C465.78 344.18 468.62 341.33 402.13 341.33C341.69 341.33 341.33 340.98 338.49 312.89C338.37 311.7 337.78 305.78 336.71 295.11L321.78 295.11L306.49 295.11C290.06 344.6 280.94 372.1 279.11 377.6C246.04 476.8 243.91 480 210.84 480C209.35 480 201.88 480 188.44 480C188.44 489.17 188.44 494.27 188.44 495.29C188.44 503.47 185.96 514.13 182.76 518.4C177.78 525.87 174.93 526.22 124.44 526.22C57.6 526.22 60.44 529.07 60.44 464C60.44 398.93 57.6 401.78 124.44 401.78C174.93 401.78 177.78 402.13 182.76 409.6C185.96 413.87 188.44 424.53 188.44 432.71C188.44 433.73 188.44 438.83 188.44 448L204.09 448L219.73 448C236.16 397.65 245.29 369.68 247.11 364.09C279.11 264.89 280.53 263.11 315.02 263.11C316.54 263.11 324.12 263.11 337.78 263.11C337.78 253.94 337.78 248.84 337.78 247.82C337.78 239.64 340.27 228.98 343.47 224.71C348.44 217.24 351.29 216.89 401.78 216.89C452.27 216.89 455.11 217.24 460.09 224.71C464.71 231.11 465.78 242.84 465.78 279.11Z" id="abjCsafvJ"></path></defs><g><g><g><use xlink:href="#abjCsafvJ" opacity="1" fill="#000000" fill-opacity="1"></use></g></g></g></svg>