<?xml version="1.0" encoding="UTF-8" standalone="no"?>
<!DOCTYPE svg PUBLIC "-//W3C//DTD SVG 1.1//EN" "http://www.w3.org/Graphics/SVG/1.1/DTD/svg11.dtd">
<svg version="1.1" xmlns="http://www.w3.org/2000/svg" xmlns:xlink="http://www.w3.org/1999/xlink" preserveAspectRatio="xMidYMid meet" viewBox="0 0 480 480" width="480" height="480"><defs><path d="M313.7 167L165.7 167L165.7 19L313.7 19L313.7 167Z" id="caskS4oEUS"></path><path d="M462 167L314 167L314 315L462 315L462 167Z" id="e6xiXVv1Tv"></path><path d="M313.7 463L165.7 463L165.7 315L313.7 315L313.7 463Z" id="a1f44RqpI6"></path><path d="M165 315L17 315L17 167L165 167L165 315Z" id="a1B5ZZP1K0"></path><path d="M17 315L21 315L21 463L17 463L17 315Z" id="a17GTXRvJh"></path><path d="M458 19L462 19L462 167L458 167L458 19Z" id="a4PYY2UBZB"></path><path d="M19 459L167 459L167 463L19 463L19 459Z" id="b1mtjYORtF"></path><path d="M311 19L459 19L459 23L311 23L311 19Z" id="cPd48BemD"></path></defs><g><g><g><use xlink:href="#caskS4oEUS" opacity="1" fill="#294661" fill-opacity="1"></use><g><use xlink:href="#caskS4oEUS" opacity="1" fill-opacity="0" stroke="#000000" stroke-width="1" stroke-opacity="0"></use></g></g><g><use xlink:href="#e6xiXVv1Tv" opacity="1" fill="#294661" fill-opacity="1"></use><g><use xlink:href="#e6xiXVv1Tv" opacity="1" fill-opacity="0" stroke="#000000" stroke-width="1" stroke-opacity="0"></use></g></g><g><use xlink:href="#a1f44RqpI6" opacity="1" fill="#294661" fill-opacity="1"></use><g><use xlink:href="#a1f44RqpI6" opacity="1" fill-opacity="0" stroke="#000000" stroke-width="1" stroke-opacity="0"></use></g></g><g><use xlink:href="#a1B5ZZP1K0" opacity="1" fill="#294661" fill-opacity="1"></use><g><use xlink:href="#a1B5ZZP1K0" opacity="1" fill-opacity="0" stroke="#000000" stroke-width="1" stroke-opacity="0"></use></g></g><g><use xlink:href="#a17GTXRvJh" opacity="1" fill="#294661" fill-opacity="1"></use></g><g><use xlink:href="#a4PYY2UBZB" opacity="1" fill="#294661" fill-opacity="1"></use></g><g><use xlink:href="#b1mtjYORtF" opacity="1" fill="#294661" fill-opacity="1"></use></g><g><use xlink:href="#cPd48BemD" opacity="1" fill="#294661" fill-opacity="1"></use></g></g></g></svg>