<?xml version="1.0" encoding="UTF-8" standalone="no"?>
<!DOCTYPE svg PUBLIC "-//W3C//DTD SVG 1.1//EN" "http://www.w3.org/Graphics/SVG/1.1/DTD/svg11.dtd">
<svg version="1.1" xmlns="http://www.w3.org/2000/svg" xmlns:xlink="http://www.w3.org/1999/xlink" preserveAspectRatio="xMidYMid meet" viewBox="0 0 320 320" width="320" height="320"><defs><path d="M45.04 229.06C28.21 229.06 14.46 215.31 14.46 198.48C14.46 181.65 28.21 167.91 45.04 167.91C47.08 167.91 57.27 167.91 75.61 167.91L75.61 198.48C66.45 218.87 56.26 229.06 45.04 229.06Z" id="f7B0LxmTC7"></path><path d="M121.6 167.91C138.43 167.91 152.18 181.65 152.18 198.48C152.18 206.14 152.18 267.39 152.18 275.05C152.18 291.88 138.43 305.62 121.6 305.62C104.77 305.62 91.02 291.88 91.02 275.05C91.02 275.05 91.02 198.48 91.02 198.48C91.02 181.65 104.77 167.91 121.6 167.91Z" id="a1F8zna1E8"></path><path d="M91.02 45.12C91.02 28.29 104.77 14.54 121.6 14.54C138.43 14.54 152.18 28.29 152.18 45.12C152.18 47.16 152.18 57.35 152.18 75.7L121.6 75.7C101.21 66.53 91.02 56.34 91.02 45.12Z" id="d2QrooA0gK"></path><path d="M152.18 121.68C152.18 138.51 138.43 152.26 121.6 152.26C113.94 152.26 52.69 152.26 45.04 152.26C28.21 152.26 14.46 138.51 14.46 121.68C14.46 104.85 28.21 91.11 45.04 91.11C45.04 91.11 121.6 91.11 121.6 91.11C138.43 91.11 152.18 104.85 152.18 121.68Z" id="a3n1qsLiN3"></path><path d="M274.96 91.11C291.79 91.11 305.54 104.85 305.54 121.68C305.54 138.51 291.79 152.26 274.96 152.26C272.92 152.26 262.73 152.26 244.39 152.26L244.39 121.68C253.55 101.3 263.74 91.11 274.96 91.11Z" id="b2yMeSBTy2"></path><path d="M198.4 152.26C181.57 152.26 167.82 138.51 167.82 121.68C167.82 114.03 167.82 52.78 167.82 45.12C167.82 28.29 181.57 14.54 198.4 14.54C215.23 14.54 228.98 28.29 228.98 45.12C228.98 50.22 228.98 75.75 228.98 121.68C219.81 142.07 209.62 152.26 198.4 152.26Z" id="b8BK2mCCw"></path><path d="M228.98 275.05C228.98 291.88 215.23 305.62 198.4 305.62C181.57 305.62 167.82 291.88 167.82 275.05C167.82 273.01 167.82 262.81 167.82 244.47L198.4 244.47C218.79 253.63 228.98 263.83 228.98 275.05Z" id="mSJRoMyal"></path><path d="M167.82 198.48C167.82 181.65 181.57 167.91 198.4 167.91C206.06 167.91 267.31 167.91 274.96 167.91C291.79 167.91 305.54 181.65 305.54 198.48C305.54 215.31 291.79 229.06 274.96 229.06C269.86 229.06 244.34 229.06 198.4 229.06C178.01 219.9 167.82 209.7 167.82 198.48Z" id="c1ju03E71t"></path></defs><g><g><g><use xlink:href="#f7B0LxmTC7" opacity="1" fill="#000000" fill-opacity="1"></use><g><use xlink:href="#f7B0LxmTC7" opacity="1" fill-opacity="0" stroke="#000000" stroke-width="1" stroke-opacity="0"></use></g></g><g><use xlink:href="#a1F8zna1E8" opacity="1" fill="#000000" fill-opacity="1"></use><g><use xlink:href="#a1F8zna1E8" opacity="1" fill-opacity="0" stroke="#000000" stroke-width="1" stroke-opacity="0"></use></g></g><g><use xlink:href="#d2QrooA0gK" opacity="1" fill="#000000" fill-opacity="1"></use><g><use xlink:href="#d2QrooA0gK" opacity="1" fill-opacity="0" stroke="#000000" stroke-width="1" stroke-opacity="0"></use></g></g><g><use xlink:href="#a3n1qsLiN3" opacity="1" fill="#000000" fill-opacity="1"></use><g><use xlink:href="#a3n1qsLiN3" opacity="1" fill-opacity="0" stroke="#000000" stroke-width="1" stroke-opacity="0"></use></g></g><g><use xlink:href="#b2yMeSBTy2" opacity="1" fill="#000000" fill-opacity="1"></use><g><use xlink:href="#b2yMeSBTy2" opacity="1" fill-opacity="0" stroke="#000000" stroke-width="1" stroke-opacity="0"></use></g></g><g><use xlink:href="#b8BK2mCCw" opacity="1" fill="#000000" fill-opacity="1"></use><g><use xlink:href="#b8BK2mCCw" opacity="1" fill-opacity="0" stroke="#000000" stroke-width="1" stroke-opacity="0"></use></g></g><g><use xlink:href="#mSJRoMyal" opacity="1" fill="#000000" fill-opacity="1"></use><g><use xlink:href="#mSJRoMyal" opacity="1" fill-opacity="0" stroke="#000000" stroke-width="1" stroke-opacity="0"></use></g></g><g><use xlink:href="#c1ju03E71t" opacity="1" fill="#000000" fill-opacity="1"></use><g><use xlink:href="#c1ju03E71t" opacity="1" fill-opacity="0" stroke="#000000" stroke-width="1" stroke-opacity="0"></use></g></g></g></g></svg>