<?xml version="1.0" encoding="UTF-8" standalone="no" ?>
<!DOCTYPE svg PUBLIC "-//W3C//DTD SVG 1.1//EN" "http://www.w3.org/Graphics/SVG/1.1/DTD/svg11.dtd">
<svg xmlns="http://www.w3.org/2000/svg" xmlns:xlink="http://www.w3.org/1999/xlink" version="1.1" width="400" height="400" viewBox="0 0 400 400" xml:space="preserve">
<desc>Created with Fabric.js 4.6.0</desc>
<defs>
</defs>
<g transform="matrix(1 0 0 1 200 199.9)" id="bz37YJ3-WlsgGbOdyu8pv"  >
<path style="stroke: none; stroke-width: 1; stroke-dasharray: none; stroke-linecap: butt; stroke-dashoffset: 0; stroke-linejoin: miter; stroke-miterlimit: 4; fill: rgb(99,91,255); fill-rule: evenodd; opacity: 1;" vector-effect="non-scaling-stroke"  transform=" translate(-180, -74.9)" d="M 360 77.4 C 360 51.800000000000004 347.6 31.60000000000001 323.9 31.60000000000001 C 300.09999999999997 31.60000000000001 285.7 51.80000000000001 285.7 77.20000000000002 C 285.7 107.30000000000001 302.7 122.50000000000001 327.09999999999997 122.50000000000001 C 338.99999999999994 122.50000000000001 347.99999999999994 119.80000000000001 354.79999999999995 116.00000000000001 L 354.79999999999995 96.00000000000001 C 347.99999999999994 99.40000000000002 340.19999999999993 101.50000000000001 330.29999999999995 101.50000000000001 C 320.59999999999997 101.50000000000001 311.99999999999994 98.10000000000001 310.9 86.30000000000001 L 359.79999999999995 86.30000000000001 C 359.79999999999995 85.00000000000001 359.99999999999994 79.80000000000001 359.99999999999994 77.4 z M 310.6 67.9 C 310.6 56.60000000000001 317.5 51.900000000000006 323.8 51.900000000000006 C 329.90000000000003 51.900000000000006 336.40000000000003 56.60000000000001 336.40000000000003 67.9 z M 247.1 31.6 C 237.29999999999998 31.6 231 36.2 227.5 39.4 L 226.2 33.199999999999996 L 204.2 33.199999999999996 L 204.2 149.79999999999998 L 229.2 144.49999999999997 L 229.29999999999998 116.19999999999997 C 232.89999999999998 118.79999999999997 238.2 122.49999999999997 246.99999999999997 122.49999999999997 C 264.9 122.49999999999997 281.2 108.09999999999997 281.2 76.39999999999998 C 281.09999999999997 47.39999999999998 264.59999999999997 31.59999999999998 247.1 31.59999999999998 z M 241.1 100.5 C 235.2 100.5 231.7 98.4 229.29999999999998 95.8 L 229.2 58.699999999999996 C 231.79999999999998 55.8 235.39999999999998 53.8 241.1 53.8 C 250.2 53.8 256.5 64 256.5 77.1 C 256.5 90.5 250.3 100.5 241.1 100.5 z M 169.8 25.7 L 194.9 20.299999999999997 L 194.9 -3.552713678800501e-15 L 169.8 5.299999999999996 z M 169.8 33.3 L 194.9 33.3 L 194.9 120.8 L 169.8 120.8 z M 142.9 40.7 L 141.3 33.300000000000004 L 119.70000000000002 33.300000000000004 L 119.70000000000002 120.80000000000001 L 144.70000000000002 120.80000000000001 L 144.70000000000002 61.500000000000014 C 150.60000000000002 53.80000000000001 160.60000000000002 55.20000000000002 163.70000000000002 56.30000000000001 L 163.70000000000002 33.30000000000001 C 160.50000000000003 32.10000000000001 148.8 29.900000000000013 142.9 40.70000000000001 z M 92.9 11.6 L 68.5 16.8 L 68.4 96.89999999999999 C 68.4 111.69999999999999 79.5 122.6 94.30000000000001 122.6 C 102.50000000000001 122.6 108.50000000000001 121.1 111.80000000000001 119.3 L 111.80000000000001 99 C 108.60000000000001 100.3 92.80000000000001 104.9 92.80000000000001 90.1 L 92.80000000000001 54.599999999999994 L 111.80000000000001 54.599999999999994 L 111.80000000000001 33.3 L 92.80000000000001 33.3 z M 25.3 58.7 C 25.3 54.800000000000004 28.5 53.300000000000004 33.8 53.300000000000004 C 41.4 53.300000000000004 51 55.6 58.599999999999994 59.7 L 58.599999999999994 36.2 C 50.3 32.900000000000006 42.099999999999994 31.6 33.8 31.6 C 13.499999999999996 31.6 0 42.2 0 59.900000000000006 C 0 87.5 38 83.10000000000001 38 95 C 38 99.6 34 101.1 28.4 101.1 C 20.099999999999998 101.1 9.5 97.69999999999999 1.0999999999999979 93.1 L 1.0999999999999979 116.89999999999999 C 10.399999999999999 120.89999999999999 19.799999999999997 122.6 28.4 122.6 C 49.2 122.6 63.5 112.3 63.5 94.39999999999999 C 63.4 64.6 25.299999999999997 69.89999999999999 25.299999999999997 58.69999999999999 z" stroke-linecap="round" />
</g>
</svg>