<?xml version="1.0" encoding="UTF-8" standalone="no"?>
<!DOCTYPE svg PUBLIC "-//W3C//DTD SVG 1.1//EN" "http://www.w3.org/Graphics/SVG/1.1/DTD/svg11.dtd">
<svg version="1.1" xmlns="http://www.w3.org/2000/svg" xmlns:xlink="http://www.w3.org/1999/xlink" preserveAspectRatio="xMidYMid meet" viewBox="0 0 640 640" width="640" height="640"><defs><path d="M161.99 471.75C210.75 467.35 238.79 536.65 286.69 540.23C352.58 545.17 407.84 452.72 473.74 441.45C528.08 432.16 584.88 483.96 640 490.17C559.86 301.68 379.54 401.66 265.9 478.5C229.04 332.66 -13.14 378.01 0.56 524.5C10.23 627.88 130.11 474.62 161.99 471.75Z" id="d1Et6dm2Sx"></path><path d="M58.07 221.73C107.77 221.73 202.6 204.99 234.44 260.28C257.87 300.98 257.52 372.58 276.29 420.14C348.97 395.34 309.14 321.69 307.47 256.74C319.94 252.07 382.29 228.73 494.52 186.71C494.52 172.71 494.52 164.92 494.52 163.37C424.58 140.15 365.81 150.66 307.47 198.38C308.16 189.82 311.63 147.03 317.86 70C315.78 70 299.16 70 297.08 70C278.37 140.03 267.98 178.93 265.9 186.71C197.15 139.05 98.71 129.2 58.07 221.73Z" id="mFLAGwQVL"></path></defs><g><g><g><use xlink:href="#d1Et6dm2Sx" opacity="1" fill="#000000" fill-opacity="1"></use><g><use xlink:href="#d1Et6dm2Sx" opacity="1" fill-opacity="0" stroke="#000000" stroke-width="1" stroke-opacity="0"></use></g></g><g><use xlink:href="#mFLAGwQVL" opacity="1" fill="#000000" fill-opacity="1"></use><g><use xlink:href="#mFLAGwQVL" opacity="1" fill-opacity="0" stroke="#000000" stroke-width="1" stroke-opacity="0"></use></g></g></g></g></svg>