<?xml version="1.0" encoding="UTF-8" standalone="no"?>
<!DOCTYPE svg PUBLIC "-//W3C//DTD SVG 1.1//EN" "http://www.w3.org/Graphics/SVG/1.1/DTD/svg11.dtd">
<svg version="1.1" xmlns="http://www.w3.org/2000/svg" xmlns:xlink="http://www.w3.org/1999/xlink" preserveAspectRatio="xMidYMid meet" viewBox="0 0 640 640" width="640" height="640"><defs><path d="M265.9 186.71C197.15 139.05 98.71 129.2 58.07 221.73C107.77 221.73 202.6 204.99 234.44 260.28C257.87 300.98 257.52 372.58 276.29 420.14C348.97 395.34 309.14 321.69 307.47 256.74C319.94 252.07 382.29 228.73 494.52 186.71C494.52 172.71 494.52 164.92 494.52 163.37C424.58 140.15 365.81 150.66 307.47 198.38C308.16 189.82 311.63 147.03 317.86 70L297.08 70C278.37 140.03 267.98 178.93 265.9 186.71Z" id="akTIT3EKL"></path><path d="M328.25 198.38L307.47 93.34L328.25 198.38Z" id="a441ispKm"></path><path d="M446.02 381.24L439.1 377.35L446.02 381.24Z" id="a3Miw3Mb6L"></path><path d="M0.56 524.5C10.23 627.88 130.11 474.62 161.99 471.75C210.75 467.35 238.79 536.65 286.69 540.23C352.58 545.17 407.84 452.72 473.74 441.45C528.08 432.16 584.88 483.96 640 490.17C559.86 301.68 379.54 401.66 265.9 478.5C229.04 332.66 -13.14 378.01 0.56 524.5Z" id="jWRBH3uAL"></path><path d="M529.16 451.27L522.23 447.37L529.16 451.27Z" id="l9tnNa91K"></path><path d="M279.76 474.61L272.83 470.71L279.76 474.61Z" id="eNBdIU9TO"></path><path d="M570.72 474.61L563.8 470.71L570.72 474.61Z" id="aprklgGtw"></path><path d="M290.15 556.31L283.22 552.41L290.15 556.31Z" id="e1uIIiONrm"></path></defs><g><g><g><use xlink:href="#akTIT3EKL" opacity="1" fill="#000000" fill-opacity="1"></use><g><use xlink:href="#akTIT3EKL" opacity="1" fill-opacity="0" stroke="#000000" stroke-width="1" stroke-opacity="0"></use></g></g><g><use xlink:href="#a441ispKm" opacity="1" fill="#b6dbb4" fill-opacity="1"></use><g><use xlink:href="#a441ispKm" opacity="1" fill-opacity="0" stroke="#000000" stroke-width="1" stroke-opacity="0"></use></g></g><g><use xlink:href="#a3Miw3Mb6L" opacity="1" fill="#f4aa75" fill-opacity="1"></use><g><use xlink:href="#a3Miw3Mb6L" opacity="1" fill-opacity="0" stroke="#000000" stroke-width="1" stroke-opacity="0"></use></g></g><g><use xlink:href="#jWRBH3uAL" opacity="1" fill="#000000" fill-opacity="1"></use><g><use xlink:href="#jWRBH3uAL" opacity="1" fill-opacity="0" stroke="#000000" stroke-width="1" stroke-opacity="0"></use></g></g><g><use xlink:href="#l9tnNa91K" opacity="1" fill="#f3a168" fill-opacity="1"></use><g><use xlink:href="#l9tnNa91K" opacity="1" fill-opacity="0" stroke="#000000" stroke-width="1" stroke-opacity="0"></use></g></g><g><use xlink:href="#eNBdIU9TO" opacity="1" fill="#f7c79e" fill-opacity="1"></use><g><use xlink:href="#eNBdIU9TO" opacity="1" fill-opacity="0" stroke="#000000" stroke-width="1" stroke-opacity="0"></use></g></g><g><use xlink:href="#aprklgGtw" opacity="1" fill="#f7bf94" fill-opacity="1"></use><g><use xlink:href="#aprklgGtw" opacity="1" fill-opacity="0" stroke="#000000" stroke-width="1" stroke-opacity="0"></use></g></g><g><use xlink:href="#e1uIIiONrm" opacity="1" fill="#f4a97e" fill-opacity="1"></use><g><use xlink:href="#e1uIIiONrm" opacity="1" fill-opacity="0" stroke="#000000" stroke-width="1" stroke-opacity="0"></use></g></g></g></g></svg>