<?xml version="1.0" encoding="utf-8"?>
<!-- Generator: Adobe Illustrator 22.1.0, SVG Export Plug-In . SVG Version: 6.00 Build 0)  -->
<svg version="1.1" id="Layer_1" xmlns="http://www.w3.org/2000/svg" xmlns:xlink="http://www.w3.org/1999/xlink" x="0px" y="0px"
	 viewBox="0 0 373.2 373.6" style="enable-background:new 0 0 373.2 373.6;" xml:space="preserve">
<style type="text/css">
	.st0{fill:#0085CA;}
</style>
<g>
	<path class="st0" d="M284.8,279.3v-185c0-3.3-2.6-5.9-5.9-5.9H94.3c-3.3,0-5.9,2.6-5.9,5.9v185c0,3.3,2.6,5.9,5.9,5.9h184.6
		C282.1,285.2,284.8,282.6,284.8,279.3z M276.9,277.5H96.1V96.4h180.9V277.5z"/>
	<path class="st0" d="M163.2,248.6c27.1,0,44.1-15.1,44.1-53.7V129h-19.8v67.5c0,25.5-10,33.9-24.3,33.9c-14.1,0-23.6-8.4-23.6-33.9
		V129h-20.7v65.9C118.9,233.5,136.2,248.6,163.2,248.6z"/>
	<path class="st0" d="M245,145c7.3,0,12.7-4.8,12.7-11.7c0-7-5.4-11.8-12.7-11.8c-7.3,0-12.7,4.8-12.7,11.8
		C232.3,140.2,237.7,145,245,145z"/>
	<rect x="234.6" y="160.4" class="st0" width="20.5" height="88.1"/>
</g>
</svg>
