<?xml version="1.0" encoding="UTF-8" standalone="no" ?>
<!DOCTYPE svg PUBLIC "-//W3C//DTD SVG 1.1//EN" "http://www.w3.org/Graphics/SVG/1.1/DTD/svg11.dtd">
<svg xmlns="http://www.w3.org/2000/svg" xmlns:xlink="http://www.w3.org/1999/xlink" version="1.1" width="360" height="360" viewBox="0 0 360 360" xml:space="preserve">
<desc>Created with Fabric.js 5.3.0</desc>
<defs>
</defs>
<g transform="matrix(1 0 0 1 179.9999989064 180.00000125)" id="WfFVdYI7A2WdTHpHMHTQx"  >
<path style="stroke: none; stroke-width: 1; stroke-dasharray: none; stroke-linecap: butt; stroke-dashoffset: 0; stroke-linejoin: miter; stroke-miterlimit: 4; fill: rgb(174,203,250); fill-rule: nonzero; opacity: 1;"  transform=" translate(-121.9420193022, -139.8527573194)" d="M 239.80789 184.00552 L 143.78591 254.88815 C 143.89942 255.79465 143.95789 256.71826 143.95789 257.65552 C 143.95789 269.83340000000004 134.08577 279.70552000000004 121.90789 279.70552000000004 C 109.73001 279.70552000000004 99.85789 269.83340000000004 99.85789 257.65552 C 99.85789 256.60141000000004 99.93186 255.56457000000003 100.07489 254.54991 L 4.30789 183.85551 C -0.3239199999999993 180.27157 -1.3744599999999991 173.70572 1.9078900000000005 168.85551 C 5.5689400000000004 164.35548 12.02555 163.32243 16.907890000000002 166.45551 L 113.39868000000001 237.30732 C 116.01700000000001 236.21110000000002 118.89172 235.60551 121.90789000000001 235.60551 C 124.92406000000001 235.60551 127.79878000000001 236.21110000000002 130.4171 237.30732 L 226.90789 166.45551 C 231.80464 163.3924 238.21132 164.41747 241.90789 168.85551 C 245.20201 173.69554000000002 244.29431 180.24397000000002 239.80789000000001 184.00551000000002 z M 121.90789 246.85552 L 121.90789 246.70522000000003 C 121.90789 246.70522000000003 121.90789 246.70522000000003 121.90789 246.70522000000003 L 121.90789 246.85551000000004 C 116.47270999999999 247.49941000000004 112.37847 252.10732000000004 112.37847 257.58051000000006 C 112.37847 262.5469300000001 115.74963 266.80089000000004 120.43481999999999 268.02716000000004 C 118.63298999999999 267.74868000000004 116.92008999999999 267.02308000000005 115.45788999999999 265.90551000000005 L 113.91055999999999 264.76329000000004 C 115.9206 266.97761 118.80532 268.30522 121.90789 268.30552000000006 C 121.90802 268.30552000000006 121.90816 268.30552000000006 121.90829 268.30553000000003 C 123.57197 268.31297 125.20577 267.9465 126.69318999999999 267.24494000000004 C 127.73443999999999 266.74160000000006 128.69644 266.06738 129.53573 265.23974000000004 C 131.56556 263.23811000000006 132.70817 260.50626000000005 132.70789 257.65552 C 132.76874999999998 253.27419000000003 130.17634999999999 249.29032000000004 126.14586999999999 247.57132000000001 C 125.18437999999999 247.16124000000002 124.18650999999998 246.89945 123.18198999999998 246.78029 C 122.75947999999998 246.78025 122.33414999999998 246.80502 121.90788999999998 246.85552 z M 121.90789 268.30551 C 121.40464 268.24589000000003 120.91288999999999 268.15229000000005 120.43481999999999 268.02716000000004 C 120.96941999999999 268.10978000000006 121.51184999999998 268.15305000000006 122.05788999999999 268.15551000000005 z M 31.90789 52.15552 C 25.72846 52.07473 20.73868 47.084950000000006 20.65789 40.90552 L 20.65789 12.705520000000003 C 20.1556 8.348280000000003 22.19764 4.089280000000004 25.90945 1.752550000000003 C 29.62127 -0.5841799999999973 34.34451 -0.5841799999999973 38.05632 1.752550000000003 C 41.76814 4.089280000000003 43.81018 8.348280000000003 43.30788 12.705520000000003 L 43.30788 40.90552 C 43.2258 47.14291 38.14581 52.156060000000004 31.90788 52.15552 z M 20.20789 140.50551 C 20.20789 134.20941 25.31179 129.10550999999998 31.607889999999998 129.10550999999998 C 37.90399 129.10550999999998 43.007889999999996 134.20941 43.007889999999996 140.50551 C 43.007889999999996 146.80160999999998 37.90398999999999 151.90551 31.607889999999998 151.90551 C 25.31179 151.90551 20.20789 146.80160999999998 20.20789 140.50551 z M 20.20789 107.35551 C 20.20789 101.05941 25.31179 95.95550999999999 31.607889999999998 95.95550999999999 C 37.90399 95.95550999999999 43.007889999999996 101.05940999999999 43.007889999999996 107.35551 C 43.007889999999996 113.65160999999999 37.90398999999999 118.75551 31.607889999999998 118.75551 C 25.31179 118.75551 20.20789 113.65161 20.20789 107.35551 z M 20.20789 74.05551 C 20.20789 67.75941 25.31179 62.65551 31.607889999999998 62.65551 C 37.90399 62.65551 43.007889999999996 67.75941 43.007889999999996 74.05551 C 43.007889999999996 80.35161 37.90398999999999 85.45551 31.607889999999998 85.45551 C 25.31179 85.45551 20.20789 80.35161000000001 20.20789 74.05551 z M 211.90789 85.15551 C 205.6705 85.07343 200.65735 79.99344 200.65789 73.75551 L 200.65789 45.55551 C 200.65789 39.34231 205.69469 34.30551 211.90789 34.30551 C 218.12109 34.30551 223.15789 39.34231 223.15789 45.55551 L 223.15789 73.75551 C 223.19802 76.7651 222.03050000000002 79.66527 219.91635000000002 81.80761 C 217.80220000000003 83.94995 214.91775 85.15578 211.90789 85.15550999999999 z M 200.80789 140.65551 C 200.80789 134.35941 205.91179 129.25551 212.20789 129.25551 C 218.50399 129.25551 223.60789 134.35941 223.60789 140.65551 C 223.60789 146.95161 218.50399 152.05551 212.20789 152.05551 C 205.91179 152.05551 200.80789 146.95161 200.80789 140.65551 z M 200.80789 106.90551 C 200.80789 100.60941000000001 205.91179 95.50551 212.20789 95.50551 C 218.50399 95.50551 223.60789 100.60941 223.60789 106.90551 C 223.60789 113.20161 218.50399 118.30551000000001 212.20789 118.30551000000001 C 205.91179 118.30551000000001 200.80789 113.20161000000002 200.80789 106.90551 z M 200.80789 12.70551 C 200.80789 6.40941 205.91179 1.30551 212.20789 1.30551 C 218.50399 1.30551 223.60789 6.40941 223.60789 12.70551 C 223.60789 19.00161 218.50399 24.105510000000002 212.20789 24.105510000000002 C 205.91179 24.105510000000002 200.80789 19.001610000000003 200.80789 12.705510000000002 z M 121.90789 185.50551 C 115.72846 185.42471999999998 110.73867999999999 180.43493999999998 110.65789 174.25551 L 110.65789 145.60550999999998 C 111.32105999999999 139.85266 116.19193999999999 135.51102999999998 121.98289 135.51102999999998 C 127.77383999999999 135.51102999999998 132.64472 139.85266 133.30789 145.60550999999998 L 133.30789 173.95550999999998 C 133.34802 177.00487999999999 132.16468999999998 179.94319999999996 130.02240999999998 182.11366999999998 C 127.88012999999998 184.28413999999998 124.95752999999998 185.50576999999998 121.90788999999998 185.50551 z M 110.50789 207.25551 C 110.50789 200.95941 115.61179 195.85550999999998 121.90789000000001 195.85550999999998 C 128.20399 195.85550999999998 133.30789000000001 200.95941 133.30789000000001 207.25551 C 133.30789000000001 213.55160999999998 128.20399 218.65551 121.90789000000001 218.65551 C 115.61179000000001 218.65551 110.50789 213.55160999999998 110.50789 207.25551 z M 110.50789 112.60551 C 110.50789 106.30941 115.61179 101.20550999999999 121.90789000000001 101.20550999999999 C 128.20399 101.20550999999999 133.30789000000001 106.30940999999999 133.30789000000001 112.60551 C 133.30789000000001 118.90160999999999 128.20399 124.00551 121.90789000000001 124.00551 C 115.61179000000001 124.00551 110.50789 118.90161 110.50789 112.60551 z M 110.50789 79.30551 C 110.50789 73.00941 115.61179 67.90550999999999 121.90789000000001 67.90550999999999 C 128.20399 67.90550999999999 133.30789000000001 73.00940999999999 133.30789000000001 79.30551 C 133.30789000000001 85.60161 128.20399 90.70551 121.90789000000001 90.70551 C 115.61179000000001 90.70551 110.50789 85.60161000000001 110.50789 79.30551 z M 166.90789 118.60552 C 160.72846 118.52473 155.73868000000002 113.53495 155.65789 107.35552 L 155.65789 79.15552 C 155.15560000000002 74.79827999999999 157.19764 70.53927999999999 160.90945000000002 68.20255 C 164.62127 65.86582 169.34451 65.86582 173.05632000000003 68.20255 C 176.76814000000002 70.53928 178.81018000000003 74.79828 178.30788000000004 79.15552 L 178.30788000000004 107.35552 C 178.22580000000005 113.59291 173.14581000000004 118.60606 166.90788000000003 118.60552 z M 155.65789 45.85551 C 155.65789 39.55941 160.76179000000002 34.455510000000004 167.05789000000001 34.455510000000004 C 173.35399 34.455510000000004 178.45789000000002 39.55941000000001 178.45789000000002 45.85551 C 178.45789000000002 52.151610000000005 173.35399 57.25551 167.05789000000001 57.25551 C 160.76179000000002 57.25551 155.65789 52.15161 155.65789 45.85551 z M 155.65789 173.35551 C 155.65789 167.05941 160.76179000000002 161.95551 167.05789000000001 161.95551 C 173.35399 161.95551 178.45789000000002 167.05941 178.45789000000002 173.35551 C 178.45789000000002 179.65161 173.35399 184.75551000000002 167.05789000000001 184.75551000000002 C 160.76179000000002 184.75551000000002 155.65789 179.65161 155.65789 173.35551 z M 155.65789 140.05551 C 155.65789 133.75941 160.76179000000002 128.65551 167.05789000000001 128.65551 C 173.35399 128.65551 178.45789000000002 133.75941 178.45789000000002 140.05551 C 178.45789000000002 146.35161 173.35399 151.45551 167.05789000000001 151.45551 C 160.76179000000002 151.45551 155.65789 146.35161 155.65789 140.05551 z M 65.35789 173.35551 C 65.35789 167.05941 70.46179 161.95551 76.75789 161.95551 C 83.05399 161.95551 88.15789000000001 167.05941 88.15789000000001 173.35551 C 88.15789000000001 179.65161 83.05399000000001 184.75551000000002 76.75789 184.75551000000002 C 70.46179000000001 184.75551000000002 65.35789 179.65161 65.35789 173.35551 z M 65.35789 79.30551 C 65.35789 73.00941 70.46179 67.90550999999999 76.75789 67.90550999999999 C 83.05399 67.90550999999999 88.15789000000001 73.00940999999999 88.15789000000001 79.30551 C 88.15789000000001 85.60161 83.05399000000001 90.70551 76.75789 90.70551 C 70.46179000000001 90.70551 65.35789 85.60161000000001 65.35789 79.30551 z M 65.35789 45.85551 C 65.35789 39.55941 70.46179 34.455510000000004 76.75789 34.455510000000004 C 83.05399 34.455510000000004 88.15789000000001 39.55941000000001 88.15789000000001 45.85551 C 88.15789000000001 52.151610000000005 83.05399000000001 57.25551 76.75789 57.25551 C 70.46179000000001 57.25551 65.35789 52.15161 65.35789 45.85551 z M 76.90789 151.45551 C 70.78347 151.46028 65.74964 146.62515 65.50788999999999 140.50551000000002 L 65.50788999999999 112.00551000000002 C 65.50788999999999 105.79231000000001 70.54468999999999 100.75551000000002 76.75788999999999 100.75551000000002 C 82.97108999999999 100.75551000000002 88.00788999999999 105.79231000000001 88.00788999999999 112.00551000000002 L 88.00788999999999 140.50551000000002 C 87.84732999999999 146.54345 82.94745999999999 151.37711000000002 76.90789 151.45551 z" stroke-linecap="round" />
</g>
</svg>