<?xml version="1.0" encoding="utf-8"?>
<!-- Generator: Adobe Illustrator 12.0.0, SVG Export Plug-In . SVG Version: 6.00 Build 51448)  -->
<!DOCTYPE svg PUBLIC "-//W3C//DTD SVG 1.1//EN" "http://www.w3.org/Graphics/SVG/1.1/DTD/svg11.dtd" [
	<!ENTITY ns_svg "http://www.w3.org/2000/svg">
	<!ENTITY ns_xlink "http://www.w3.org/1999/xlink">
]>
<svg  version="1.1" id="_x32_" xmlns="&ns_svg;" xmlns:xlink="&ns_xlink;" width="90.71" height="90.71" viewBox="0 0 90.71 90.71"
	 overflow="visible" enable-background="new 0 0 90.71 90.71" xml:space="preserve">
<g>
	<g>
		<path fill="#4B4B4B" d="M81.523,6.618c-4.337,0-7.852,3.516-7.852,7.853c0,4.337,3.515,7.853,7.852,7.853
			c4.338,0,7.854-3.516,7.854-7.853C89.376,10.133,85.861,6.618,81.523,6.618z M64.337,52.739c-1.23,1.686-3.168,2.71-5.254,2.78
			c-2.085,0.071-4.088-0.822-5.429-2.42c0,0-2.817-3.357-5.498-6.553c-2.292,6.287-4.607,12.631-4.607,12.631
			c-0.817,2.241-2.75,3.889-5.092,4.34c-2.342,0.452-4.749-0.358-6.341-2.134c0,0-2.166-2.415-3.939-4.394
			c-1.589,4.37-3.207,8.817-3.207,8.817c-1.282,3.523-5.177,5.342-8.701,4.061c-3.523-1.281-5.341-5.176-4.06-8.7l7.079-19.466
			c0.815-2.242,2.749-3.892,5.091-4.345c2.343-0.453,4.751,0.357,6.344,2.133c0,0,2.168,2.418,3.947,4.403
			c2.353-6.451,4.755-13.037,4.755-13.037c0.83-2.277,2.813-3.939,5.2-4.36c2.389-0.42,4.819,0.465,6.378,2.322
			c0,0,3.82,4.552,7.48,8.914c2.568-3.516,6.794-9.3,11.194-15.324C62.622,13.744,51.872,8.207,39.826,8.207
			c-21.257,0-38.489,17.232-38.489,38.489c0,21.258,17.232,38.49,38.489,38.49s38.49-17.232,38.49-38.49
			c0-3.797-0.559-7.461-1.583-10.925L64.337,52.739z"/>
	</g>
</g>
</svg>
